<?xml version="1.0" encoding="utf-8"?>
<!-- Generator: Adobe Illustrator 27.5.0, SVG Export Plug-In . SVG Version: 6.00 Build 0)  -->
<svg version="1.1" xmlns="http://www.w3.org/2000/svg" xmlns:xlink="http://www.w3.org/1999/xlink" x="0px" y="0px"
	 viewBox="0 0 750 500" style="enable-background:new 0 0 750 500;" xml:space="preserve">
<g id="BACKGROUND">
	<rect style="opacity:0.76;fill:#FCEEE5;" width="750" height="500"/>
	<rect style="opacity:0.76;fill:#FCEEE5;" width="750" height="500"/>
	<rect style="fill:#FFFFFF;" width="750" height="500"/>
	<g>
		<g>
			<g>
				<g style="opacity:0.68;">
					<g style="opacity:0.47;">
						<path style="fill:#E1E2FE;" d="M699.729,229.928c-3.17-30.669-18.417-61.389-44.827-83.344
							c-41.15-34.209-103.398-42.831-157.953-34.923c-22.851,3.312-45.512,9.18-68.909,7.333
							c-34.125-2.694-64.185-21.158-95.255-34.694c-42.294-18.425-90.775-28.341-135.738-20.324
							c-50.98,9.09-92.779,43.428-97.766,88.986c-2.26,20.643,20.704,57.011,13.457,76.576
							c-7.351,19.843-61.019,80.622-59.696,126.852c1.318,46.058,13.679,60.383,31.146,83.79h13.962h526.144h30.281
							c10.876-23.718,19.397-42.688,6.663-73.834c-10.175-24.885,17.468-45.38,28.163-68.545
							C698.917,277.185,702.05,252.392,699.729,229.928z"/>
					</g>
				</g>
				<g style="opacity:0.41;">
					<path style="fill:#E1E2FE;" d="M51.758,239.121c-5.085-9.695-1.133-21.567,8.826-26.517c9.96-4.95,29.075-4.543,34.16,5.152
						c5.085,9.695-10.245,17.973-16.508,26.99C69.5,257.323,56.843,248.816,51.758,239.121z"/>
				</g>
				<g style="opacity:0.41;">
					<path style="fill:#E1E2FE;" d="M695.021,337.887c5.407,3.925,6.522,11.374,2.489,16.637
						c-4.032,5.264-14.486,10.005-19.893,6.08s0.619-12.383,1.538-18.888C680.436,332.645,689.614,333.962,695.021,337.887z"/>
				</g>
				<g style="opacity:0.41;">
					<path style="fill:#E1E2FE;" d="M419.193,76.657c5.256-7.795,15.832-10.056,23.622-5.051
						c7.79,5.005,15.257,18.858,10.001,26.652c-5.256,7.794-17.744,0.373-27.104-0.243
						C412.658,97.154,413.937,84.451,419.193,76.657z"/>
				</g>
			</g>
			<g style="opacity:0.43;">
				<g>
					<path style="fill:#E1E2FE;" d="M636.805,413.046c5.558-26.899-3.352-49.844-5.574-76.22
						c-2.104-24.971,7.007-45.972,12.062-69.756c4.499-21.167,3-45.142-2.648-65.945c-7.71-28.402-25.466-54.702-51.048-70.735
						c-39.861-24.982-93.022-22.041-137.053-4.856c-18.443,7.198-36.305,16.775-56.056,19.198
						c-28.807,3.533-56.845-8.554-84.907-15.805c-38.199-9.871-80.132-10.603-116.174,4.976
						c-40.865,17.664-69.921,57.539-66.526,101.457c1.538,19.9,9.407,39.539,6.622,59.308c-2.825,20.05-15.062,36.824-21.539,55.707
						c-8.841,25.774-9.646,63.654,4.568,89.807h508.702C631.624,431.629,634.858,422.471,636.805,413.046z"/>
				</g>
			</g>
			<g>
				<g>
					<g style="opacity:0.47;">
						<path style="fill:#E1E2FE;" d="M542.213,328.771c-1.624-16.251-9.436-32.529-22.966-44.163
							c-21.082-18.127-52.973-22.696-80.923-18.505c-11.707,1.755-23.317,4.864-35.304,3.886
							c-17.483-1.427-32.883-11.212-48.801-18.384c-21.668-9.763-46.506-15.018-69.541-10.769
							c-26.118,4.817-47.533,23.012-50.088,47.152c-1.158,10.939,10.607,30.21,6.894,40.576
							c-3.766,10.515-31.261,42.72-30.584,67.217c0.675,24.405,7.008,31.996,15.957,44.399h7.153h269.554h15.514
							c5.572-12.568,9.938-22.62,3.414-39.124c-5.213-13.186,8.949-24.046,14.428-36.321
							C541.797,353.811,543.402,340.674,542.213,328.771z"/>
					</g>
				</g>
			</g>
		</g>
	</g>
</g>
<g id="OBJECTS">
	<g>
		<g>
			<g style="opacity:0.6;">
				
					<ellipse transform="matrix(0.7071 -0.7071 0.7071 0.7071 -101.5016 155.8079)" style="fill:#5574D8;" cx="137.326" cy="200.427" rx="43.476" ry="43.476"/>
				<circle style="fill:#708CF5;" cx="140.856" cy="196.375" r="43.476"/>
				<path style="fill:#FFFFFF;" d="M140.975,234.167c-1.12,0-2.246-0.049-3.376-0.149c-9.993-0.885-19.042-5.607-25.482-13.299
					c-6.439-7.691-9.499-17.43-8.614-27.422c0.884-9.992,5.607-19.042,13.298-25.482c7.691-6.44,17.434-9.499,27.422-8.615
					c9.993,0.885,19.042,5.607,25.482,13.299c6.439,7.691,9.499,17.43,8.614,27.422c-0.884,9.992-5.607,19.042-13.298,25.482l0,0
					C158.199,231.115,149.766,234.167,140.975,234.167z M140.847,160.051c-8.558,0-16.765,2.971-23.404,8.531
					c-7.486,6.269-12.084,15.077-12.944,24.803c-0.861,9.727,2.116,19.206,8.386,26.692c6.268,7.486,15.076,12.083,24.803,12.944
					c9.725,0.856,19.205-2.117,26.691-8.386l0,0c7.486-6.268,12.084-15.077,12.944-24.803c0.861-9.727-2.116-19.206-8.386-26.692
					c-6.268-7.486-15.076-12.083-24.803-12.944C143.034,160.099,141.937,160.051,140.847,160.051z"/>
				<g>
					<g>
						<path style="fill:#FFFFFF;" d="M136.005,212.707c-2.222-0.606-4.223-1.439-6.003-2.498c-1.78-1.06-3.24-2.172-4.381-3.339
							c-0.657-0.695-0.907-1.457-0.752-2.285c0.125-0.668,0.469-1.205,1.034-1.612c0.565-0.407,1.204-0.544,1.918-0.41
							c0.553,0.103,1.087,0.37,1.602,0.8c1.292,1.123,2.657,2.105,4.096,2.946c1.439,0.841,3.115,1.44,5.026,1.797
							c0.714,0.133,1.401,0.22,2.06,0.26c0.66,0.04,1.306,0.024,1.939-0.049c0.633-0.072,1.218-0.207,1.756-0.405
							c0.537-0.197,1.019-0.447,1.445-0.749c0.426-0.302,0.785-0.693,1.077-1.175c0.293-0.482,0.497-1.033,0.613-1.655
							c0.215-1.151-0.022-2.179-0.711-3.082c-0.689-0.903-1.889-1.753-3.599-2.549l-5.428-2.516c-1.072-0.51-1.956-0.944-2.652-1.3
							c-0.696-0.356-1.434-0.774-2.214-1.254c-0.78-0.479-1.405-0.93-1.874-1.351c-0.469-0.421-0.919-0.917-1.349-1.485
							c-0.43-0.569-0.736-1.162-0.918-1.78c-0.182-0.618-0.29-1.317-0.323-2.098c-0.033-0.781,0.037-1.632,0.209-2.553
							c0.159-0.852,0.413-1.639,0.763-2.36c0.349-0.721,0.771-1.351,1.265-1.891c0.494-0.539,1.06-1.017,1.698-1.434
							c0.638-0.417,1.333-0.758,2.086-1.022c0.752-0.264,1.557-0.46,2.415-0.585c0.858-0.126,1.746-0.192,2.665-0.199
							c0.919-0.007,1.88,0.047,2.883,0.163l1.323-7.081c0.133-0.714,0.45-1.227,0.949-1.538c0.499-0.312,1.048-0.412,1.647-0.3
							c0.599,0.112,1.091,0.412,1.476,0.901c0.385,0.489,0.513,1.079,0.384,1.77l-1.336,7.15c1.176,0.339,2.312,0.766,3.407,1.28
							c1.095,0.514,1.983,0.99,2.664,1.427c0.681,0.437,1.335,0.893,1.961,1.367c1.006,0.736,1.408,1.645,1.206,2.728
							c-0.043,0.23-0.121,0.454-0.233,0.672c-0.112,0.217-0.254,0.405-0.427,0.564c-0.173,0.158-0.359,0.296-0.56,0.414
							s-0.435,0.193-0.704,0.226c-0.268,0.033-0.541,0.024-0.817-0.028c-0.138-0.026-0.268-0.062-0.391-0.109
							c-0.122-0.047-0.255-0.101-0.398-0.164c-0.143-0.063-0.28-0.13-0.409-0.202c-0.023-0.004-0.302-0.17-0.837-0.496
							c-0.535-0.326-0.92-0.559-1.156-0.699c-0.236-0.139-0.659-0.362-1.27-0.666s-1.143-0.547-1.598-0.727
							s-1.009-0.373-1.661-0.579s-1.301-0.368-1.946-0.489c-1.336-0.25-2.546-0.339-3.632-0.268
							c-1.086,0.071-2.034,0.365-2.845,0.88c-0.811,0.516-1.309,1.269-1.494,2.259c-0.232,1.243-0.042,2.202,0.57,2.877
							c0.613,0.674,1.952,1.479,4.017,2.413l5.337,2.427c3.447,1.574,5.828,3.305,7.143,5.196c1.315,1.89,1.725,4.159,1.23,6.807
							c-0.59,3.155-2.094,5.435-4.514,6.842s-5.4,1.958-8.942,1.653l-1.304,6.977c-0.129,0.691-0.462,1.195-0.997,1.512
							c-0.536,0.317-1.115,0.417-1.736,0.301c-0.368-0.069-0.699-0.214-0.991-0.436c-0.292-0.221-0.515-0.525-0.67-0.911
							c-0.154-0.386-0.186-0.821-0.096-1.305L136.005,212.707z"/>
					</g>
				</g>
			</g>
			<g style="opacity:0.6;">
				
					<ellipse transform="matrix(0.9797 -0.2004 0.2004 0.9797 -16.4382 46.1695)" style="fill:#5574D8;" cx="219.819" cy="104.276" rx="28.603" ry="28.603"/>
				
					<ellipse transform="matrix(0.9655 -0.2605 0.2605 0.9655 -18.7627 61.3202)" style="fill:#708CF5;" cx="221.925" cy="101.435" rx="28.603" ry="28.603"/>
				<path style="fill:#FFFFFF;" d="M221.978,126.465c-0.082,0-0.163,0-0.245-0.001c-6.644-0.063-12.867-2.711-17.52-7.455
					c-4.654-4.744-7.183-11.016-7.119-17.661c0.064-6.645,2.712-12.868,7.455-17.522c4.686-4.596,10.862-7.119,17.416-7.119
					c0.082,0,0.164,0.001,0.246,0.002c6.645,0.063,12.867,2.711,17.521,7.455c4.654,4.744,7.182,11.016,7.118,17.661
					c-0.063,6.645-2.711,12.868-7.454,17.521C234.71,123.942,228.533,126.465,221.978,126.465z M221.966,77.706
					c-6.291,0-12.219,2.421-16.716,6.833c-4.554,4.467-7.095,10.439-7.156,16.817c-0.061,6.378,2.365,12.398,6.832,16.952
					c4.467,4.553,10.439,7.094,16.817,7.155c6.369,0.053,12.398-2.365,16.951-6.832l0,0c4.554-4.467,7.095-10.439,7.155-16.817
					c0.062-6.378-2.365-12.398-6.831-16.951c-4.467-4.553-10.44-7.094-16.817-7.155C222.123,77.707,222.044,77.706,221.966,77.706z"
					/>
				<g>
					<g>
						<path style="fill:#FFFFFF;" d="M219.588,112.398c-1.489-0.283-2.844-0.725-4.067-1.328c-1.222-0.603-2.238-1.257-3.046-1.963
							c-0.467-0.422-0.671-0.908-0.612-1.46c0.047-0.445,0.246-0.815,0.595-1.111c0.349-0.296,0.761-0.419,1.236-0.368
							c0.368,0.039,0.732,0.186,1.092,0.442c0.905,0.67,1.852,1.243,2.839,1.72c0.988,0.477,2.117,0.783,3.389,0.919
							c0.475,0.051,0.93,0.072,1.365,0.064c0.435-0.008,0.858-0.052,1.269-0.132c0.412-0.08,0.788-0.199,1.131-0.356
							c0.342-0.157,0.645-0.346,0.909-0.566c0.264-0.22,0.479-0.495,0.646-0.826c0.167-0.331,0.272-0.703,0.316-1.117
							c0.082-0.766-0.127-1.428-0.626-1.985s-1.329-1.052-2.492-1.486l-3.69-1.369c-0.73-0.279-1.332-0.518-1.807-0.715
							s-0.981-0.434-1.517-0.708s-0.97-0.537-1.299-0.789c-0.33-0.252-0.65-0.554-0.962-0.904c-0.311-0.351-0.543-0.724-0.695-1.12
							c-0.152-0.396-0.258-0.849-0.32-1.359c-0.062-0.51-0.06-1.072,0.005-1.685c0.06-0.567,0.186-1.096,0.378-1.587
							c0.192-0.491,0.436-0.926,0.732-1.305c0.296-0.379,0.642-0.722,1.039-1.028c0.397-0.307,0.835-0.566,1.315-0.778
							c0.48-0.212,0.998-0.382,1.554-0.509c0.556-0.127,1.135-0.216,1.737-0.268c0.602-0.052,1.235-0.066,1.899-0.042l0.502-4.713
							c0.05-0.475,0.231-0.828,0.543-1.058c0.311-0.23,0.666-0.324,1.064-0.282c0.398,0.042,0.737,0.214,1.015,0.515
							c0.278,0.301,0.392,0.681,0.344,1.141l-0.507,4.758c0.789,0.161,1.556,0.383,2.301,0.663c0.745,0.281,1.352,0.547,1.821,0.798
							c0.469,0.251,0.921,0.517,1.357,0.795c0.698,0.431,1.009,1.006,0.932,1.727c-0.016,0.153-0.056,0.304-0.118,0.452
							s-0.146,0.279-0.251,0.392c-0.105,0.113-0.22,0.213-0.346,0.3c-0.126,0.087-0.275,0.149-0.45,0.185
							c-0.174,0.036-0.353,0.044-0.537,0.024c-0.092-0.01-0.179-0.027-0.262-0.051c-0.083-0.024-0.172-0.053-0.27-0.087
							c-0.097-0.034-0.19-0.071-0.279-0.111c-0.015-0.002-0.207-0.096-0.574-0.282c-0.368-0.186-0.632-0.319-0.795-0.398
							c-0.162-0.079-0.451-0.203-0.867-0.371c-0.416-0.168-0.778-0.3-1.086-0.395c-0.308-0.095-0.681-0.193-1.119-0.294
							c-0.439-0.101-0.873-0.174-1.302-0.22c-0.889-0.095-1.688-0.09-2.396,0.012c-0.708,0.103-1.315,0.344-1.821,0.724
							c-0.505,0.38-0.793,0.9-0.863,1.559c-0.088,0.827,0.086,1.447,0.523,1.857c0.437,0.411,1.357,0.869,2.76,1.375l3.626,1.316
							c2.342,0.854,3.994,1.866,4.954,3.038c0.96,1.172,1.346,2.639,1.159,4.401c-0.223,2.1-1.092,3.673-2.606,4.721
							c-1.514,1.048-3.441,1.563-5.779,1.547l-0.494,4.644c-0.049,0.46-0.241,0.807-0.576,1.043
							c-0.335,0.236-0.709,0.331-1.123,0.287c-0.245-0.026-0.469-0.104-0.673-0.234c-0.203-0.13-0.365-0.318-0.486-0.563
							c-0.121-0.245-0.165-0.529-0.13-0.851L219.588,112.398z"/>
					</g>
				</g>
			</g>
			<g style="opacity:0.4;">
				
					<ellipse transform="matrix(0.1214 -0.9926 0.9926 0.1214 -155.6499 393.1865)" style="fill:#5574D8;" cx="144.282" cy="284.518" rx="22.092" ry="22.092"/>
				
					<ellipse transform="matrix(0.1193 -0.9929 0.9929 0.1193 -151.7928 393.9273)" style="fill:#708CF5;" cx="146.148" cy="282.525" rx="22.092" ry="22.092"/>
				<path style="fill:#FFFFFF;" d="M146.192,301.967c-5.764,0-11.471-2.561-15.276-7.453c-3.171-4.074-4.564-9.141-3.926-14.264
					c0.64-5.123,3.236-9.69,7.312-12.861c8.411-6.545,20.581-5.026,27.126,3.387c6.545,8.412,5.025,20.58-3.387,27.125
					C154.52,300.64,150.342,301.967,146.192,301.967z M146.151,264.322c-3.935,0-7.896,1.258-11.236,3.855
					c-3.863,3.007-6.325,7.338-6.932,12.196c-0.606,4.858,0.715,9.662,3.722,13.526c6.206,7.978,17.744,9.416,25.723,3.211
					c7.977-6.206,9.417-17.745,3.211-25.723C157.03,266.751,151.617,264.322,146.151,264.322z"/>
				<g>
					<g>
						<path style="fill:#FFFFFF;" d="M143.387,290.73c-1.117-0.348-2.118-0.808-3.003-1.378c-0.885-0.571-1.606-1.162-2.164-1.775
							c-0.321-0.365-0.434-0.756-0.34-1.174c0.076-0.337,0.26-0.603,0.554-0.8c0.294-0.196,0.621-0.254,0.981-0.173
							c0.279,0.063,0.545,0.208,0.799,0.435c0.635,0.594,1.311,1.117,2.027,1.571c0.716,0.453,1.556,0.788,2.52,1.004
							c0.36,0.081,0.707,0.137,1.042,0.17c0.334,0.032,0.663,0.036,0.986,0.011c0.323-0.025,0.622-0.083,0.899-0.174
							c0.276-0.09,0.525-0.208,0.747-0.354c0.222-0.145,0.411-0.338,0.569-0.577c0.157-0.239,0.271-0.516,0.341-0.829
							c0.13-0.581,0.029-1.107-0.305-1.578c-0.333-0.471-0.927-0.925-1.781-1.36l-2.711-1.377c-0.535-0.279-0.976-0.515-1.323-0.708
							c-0.347-0.194-0.714-0.419-1.102-0.677c-0.387-0.258-0.697-0.498-0.927-0.72c-0.231-0.223-0.45-0.482-0.658-0.779
							c-0.208-0.297-0.352-0.604-0.434-0.921c-0.081-0.317-0.123-0.674-0.126-1.071c-0.002-0.397,0.049-0.828,0.153-1.293
							c0.096-0.43,0.24-0.824,0.43-1.184c0.191-0.36,0.416-0.672,0.677-0.937c0.261-0.265,0.557-0.497,0.888-0.697
							c0.332-0.2,0.691-0.361,1.078-0.481c0.387-0.121,0.799-0.205,1.237-0.253c0.438-0.048,0.89-0.066,1.357-0.053
							c0.467,0.013,0.954,0.058,1.461,0.136l0.801-3.572c0.081-0.36,0.251-0.615,0.51-0.764c0.259-0.149,0.54-0.19,0.842-0.122
							c0.302,0.068,0.546,0.229,0.733,0.485c0.187,0.255,0.241,0.557,0.163,0.906l-0.809,3.607c0.591,0.193,1.16,0.431,1.707,0.712
							c0.547,0.281,0.989,0.539,1.327,0.773c0.338,0.234,0.661,0.478,0.971,0.73c0.498,0.392,0.685,0.861,0.563,1.407
							c-0.026,0.116-0.07,0.228-0.13,0.337c-0.061,0.108-0.137,0.201-0.227,0.278s-0.188,0.144-0.292,0.2
							c-0.104,0.056-0.224,0.09-0.361,0.102s-0.275,0.002-0.414-0.029c-0.07-0.016-0.135-0.036-0.196-0.062
							c-0.061-0.026-0.128-0.056-0.199-0.09c-0.072-0.034-0.14-0.071-0.204-0.11c-0.012-0.003-0.15-0.092-0.416-0.267
							c-0.266-0.175-0.457-0.301-0.574-0.376c-0.117-0.075-0.328-0.196-0.633-0.362c-0.304-0.166-0.57-0.299-0.798-0.399
							c-0.228-0.1-0.505-0.208-0.833-0.324c-0.328-0.116-0.654-0.211-0.979-0.284c-0.674-0.151-1.287-0.219-1.839-0.202
							c-0.553,0.016-1.04,0.148-1.461,0.395c-0.421,0.247-0.688,0.62-0.8,1.12c-0.141,0.627-0.062,1.118,0.237,1.471
							c0.299,0.354,0.964,0.787,1.996,1.299l2.666,1.33c1.722,0.862,2.899,1.785,3.533,2.769s0.8,2.144,0.501,3.479
							c-0.357,1.591-1.163,2.722-2.417,3.392c-1.254,0.67-2.778,0.896-4.571,0.677l-0.789,3.519
							c-0.078,0.349-0.256,0.598-0.534,0.749c-0.278,0.151-0.574,0.192-0.887,0.121c-0.186-0.042-0.351-0.121-0.495-0.239
							c-0.144-0.118-0.252-0.276-0.324-0.475c-0.071-0.199-0.079-0.42-0.025-0.664L143.387,290.73z"/>
					</g>
				</g>
			</g>
			<g style="opacity:0.4;">
				
					<ellipse transform="matrix(0.1179 -0.993 0.993 0.1179 35.8414 378.064)" style="fill:#5574D8;" cx="230.732" cy="168.857" rx="16.123" ry="16.123"/>
				
					<ellipse transform="matrix(0.0534 -0.9986 0.9986 0.0534 52.5302 390.0649)" style="fill:#708CF5;" cx="232.007" cy="167.325" rx="16.123" ry="16.123"/>
				<path style="fill:#FFFFFF;" d="M232.05,181.654c-0.318,0-0.638-0.01-0.958-0.031c-3.796-0.25-7.268-1.964-9.774-4.825
					c-5.176-5.906-4.581-14.922,1.326-20.098c2.861-2.507,6.53-3.753,10.323-3.5c3.796,0.25,7.268,1.964,9.774,4.825
					c2.507,2.861,3.75,6.527,3.5,10.324c-0.251,3.796-1.965,7.267-4.826,9.774C238.796,180.419,235.501,181.654,232.05,181.654z
					 M232.01,154.169c-3.209,0-6.271,1.149-8.708,3.283c-5.491,4.813-6.044,13.195-1.232,18.687c2.331,2.66,5.559,4.253,9.089,4.486
					c3.529,0.233,6.939-0.923,9.599-3.254l0,0c2.66-2.331,4.253-5.559,4.486-9.088c0.232-3.53-0.923-6.939-3.254-9.599
					c-2.331-2.661-5.559-4.254-9.089-4.487C232.603,154.178,232.306,154.169,232.01,154.169z"/>
				<g>
					<g>
						<path style="fill:#FFFFFF;" d="M230.345,173.421c-0.829-0.206-1.578-0.498-2.247-0.876c-0.669-0.378-1.219-0.778-1.652-1.201
							c-0.249-0.252-0.349-0.532-0.298-0.841c0.041-0.249,0.164-0.451,0.37-0.606c0.206-0.156,0.442-0.212,0.708-0.168
							c0.206,0.034,0.406,0.128,0.601,0.283c0.488,0.406,1.003,0.758,1.543,1.058c0.541,0.3,1.167,0.508,1.878,0.625
							c0.266,0.044,0.521,0.07,0.766,0.079c0.245,0.009,0.484-0.002,0.719-0.034c0.234-0.032,0.45-0.087,0.648-0.165
							s0.374-0.174,0.529-0.29c0.155-0.115,0.285-0.264,0.39-0.445c0.104-0.181,0.176-0.387,0.214-0.619
							c0.07-0.429-0.026-0.808-0.289-1.137c-0.263-0.329-0.715-0.634-1.356-0.915l-2.033-0.888c-0.402-0.18-0.733-0.333-0.994-0.46
							s-0.538-0.275-0.831-0.447c-0.293-0.171-0.529-0.333-0.706-0.485c-0.178-0.152-0.348-0.332-0.512-0.54
							c-0.164-0.207-0.283-0.425-0.355-0.652c-0.073-0.228-0.118-0.486-0.137-0.775c-0.019-0.289,0-0.605,0.056-0.948
							c0.052-0.317,0.14-0.611,0.263-0.881c0.124-0.27,0.275-0.507,0.453-0.712c0.179-0.204,0.384-0.386,0.618-0.546
							c0.233-0.16,0.488-0.292,0.765-0.396c0.277-0.104,0.574-0.183,0.891-0.237c0.317-0.054,0.646-0.086,0.986-0.096
							c0.341-0.01,0.697,0.002,1.07,0.037l0.432-2.636c0.043-0.266,0.156-0.459,0.339-0.578c0.182-0.12,0.385-0.161,0.608-0.125
							c0.223,0.036,0.408,0.144,0.555,0.322s0.199,0.396,0.157,0.653l-0.436,2.662c0.439,0.116,0.863,0.265,1.274,0.446
							c0.41,0.182,0.744,0.351,1,0.507s0.502,0.32,0.738,0.491c0.379,0.265,0.536,0.598,0.47,1.001
							c-0.014,0.086-0.041,0.169-0.081,0.251c-0.04,0.082-0.091,0.152-0.154,0.213c-0.063,0.06-0.131,0.113-0.204,0.158
							c-0.074,0.045-0.16,0.075-0.259,0.09c-0.099,0.015-0.2,0.013-0.303-0.003c-0.051-0.008-0.1-0.021-0.146-0.037
							c-0.046-0.016-0.095-0.035-0.149-0.057s-0.105-0.046-0.153-0.071c-0.008-0.001-0.113-0.06-0.314-0.177
							c-0.201-0.117-0.346-0.2-0.435-0.249c-0.089-0.05-0.247-0.129-0.476-0.236c-0.229-0.108-0.428-0.193-0.598-0.256
							c-0.17-0.063-0.377-0.13-0.621-0.201c-0.244-0.071-0.486-0.126-0.726-0.165c-0.497-0.081-0.947-0.104-1.349-0.069
							c-0.402,0.035-0.751,0.152-1.048,0.35c-0.296,0.198-0.475,0.481-0.535,0.85c-0.076,0.463,0.003,0.817,0.236,1.062
							c0.233,0.245,0.736,0.532,1.51,0.861l1.999,0.856c1.291,0.555,2.189,1.177,2.692,1.867c0.503,0.69,0.674,1.528,0.513,2.514
							c-0.192,1.174-0.731,2.033-1.617,2.574c-0.885,0.542-1.986,0.771-3.302,0.687l-0.425,2.598
							c-0.042,0.257-0.161,0.447-0.357,0.569c-0.196,0.122-0.41,0.164-0.641,0.126c-0.137-0.023-0.261-0.074-0.371-0.153
							c-0.11-0.08-0.195-0.191-0.256-0.333c-0.06-0.142-0.076-0.303-0.046-0.483L230.345,173.421z"/>
					</g>
				</g>
			</g>
		</g>
		<g>
			<path style="fill:#9BABE8;" d="M111.93,261.69c0.305,1.323-0.52,2.642-1.843,2.947c-1.323,0.305-2.642-0.52-2.947-1.843
				c-0.305-1.322,0.52-2.642,1.843-2.947C110.306,259.542,111.625,260.367,111.93,261.69z"/>
			<path style="fill:#9BABE8;" d="M269.06,200.487c0.305,1.322-0.52,2.642-1.843,2.947c-1.322,0.305-2.642-0.52-2.947-1.843
				c-0.305-1.322,0.52-2.642,1.843-2.947C267.436,198.339,268.755,199.164,269.06,200.487z"/>
			<path style="fill:#9987F2;" d="M169.709,251.388c0.152,0.661-0.26,1.321-0.921,1.473c-0.661,0.152-1.321-0.26-1.473-0.921
				c-0.152-0.661,0.26-1.321,0.921-1.473C168.897,250.315,169.556,250.727,169.709,251.388z"/>
			<path style="fill:#9987F2;" d="M136.505,119.272c0.152,0.661-0.26,1.321-0.921,1.473c-0.661,0.152-1.321-0.26-1.473-0.921
				c-0.152-0.661,0.26-1.321,0.921-1.473C135.693,118.198,136.352,118.611,136.505,119.272z"/>
			<path style="fill:#9987F2;" d="M266.673,104.666c0.152,0.661-0.26,1.321-0.921,1.473c-0.661,0.152-1.321-0.26-1.473-0.921
				c-0.152-0.661,0.26-1.321,0.921-1.473C265.861,103.592,266.521,104.005,266.673,104.666z"/>
			<path style="fill:#FFFFFF;" d="M274.712,107.811c0.152,0.661-0.26,1.321-0.921,1.473c-0.661,0.152-1.321-0.26-1.473-0.921
				c-0.152-0.661,0.26-1.321,0.921-1.473C273.9,106.738,274.56,107.15,274.712,107.811z"/>
			<path style="fill:#FFFFFF;" d="M94.878,238.676c0.152,0.661-0.26,1.321-0.921,1.473c-0.661,0.152-1.321-0.26-1.473-0.921
				c-0.152-0.661,0.26-1.321,0.921-1.473C94.066,237.602,94.726,238.014,94.878,238.676z"/>
			<path style="fill:#FFFFFF;" d="M266.747,120.245c0.152,0.661-0.26,1.321-0.921,1.473c-0.661,0.153-1.321-0.26-1.473-0.921
				c-0.152-0.661,0.26-1.321,0.921-1.473C265.935,119.171,266.594,119.584,266.747,120.245z"/>
			<polygon style="fill:#9987F2;" points="166.527,108.295 164.257,113.434 162.841,107.888 158.168,105.46 163.275,103.509 
				165.642,98.216 167.167,103.895 171.792,106.81 			"/>
			<polygon style="fill:#9987F2;" points="72.117,200.81 69.589,206.534 68.012,200.358 62.807,197.654 68.495,195.481 
				71.131,189.585 72.83,195.91 77.981,199.157 			"/>
			<polygon style="fill:#FFFFFF;" points="143.501,328.215 141.535,332.667 140.308,327.864 136.26,325.76 140.684,324.07 
				142.734,319.485 144.056,324.404 148.062,326.929 			"/>
			<polygon style="fill:#FFFFFF;" points="198.404,180.975 196.438,185.426 195.211,180.623 191.164,178.52 195.587,176.83 
				197.637,172.245 198.959,177.164 202.965,179.689 			"/>
			<path style="fill:#9BABE8;" d="M93.533,155.963c0.152,0.661-0.26,1.321-0.921,1.473c-0.661,0.152-1.321-0.26-1.473-0.921
				c-0.153-0.661,0.26-1.321,0.921-1.473C92.721,154.889,93.381,155.302,93.533,155.963z"/>
			<path style="fill:#9BABE8;" d="M110.577,300.174c0.081,0.351-0.138,0.7-0.488,0.781c-0.351,0.081-0.7-0.138-0.781-0.488
				c-0.081-0.351,0.138-0.7,0.489-0.781C110.146,299.605,110.496,299.823,110.577,300.174z"/>
			<path style="fill:#9BABE8;" d="M180.935,148.759c0.305,1.323-0.52,2.642-1.843,2.947c-1.323,0.305-2.642-0.52-2.947-1.843
				c-0.305-1.322,0.52-2.642,1.843-2.947C179.311,146.611,180.63,147.436,180.935,148.759z"/>
		</g>
		<g>
			<g style="opacity:0.6;">
				
					<ellipse transform="matrix(0.0882 -0.9961 0.9961 0.0882 375.1993 765.4071)" style="fill:#5574D8;" cx="605.681" cy="177.762" rx="43.476" ry="43.476"/>
				
					<ellipse transform="matrix(0.7071 -0.7071 0.7071 0.7071 55.6028 481.6557)" style="fill:#708CF5;" cx="609.211" cy="173.709" rx="43.476" ry="43.476"/>
				<path style="fill:#FFFFFF;" d="M609.296,211.482c-10.74,0-21.406-4.569-28.825-13.429c-13.294-15.877-11.192-39.61,4.685-52.904
					c15.876-13.294,39.607-11.193,52.904,4.684c6.439,7.691,9.499,17.43,8.614,27.422c-0.884,9.992-5.607,19.042-13.298,25.482l0,0
					C626.358,208.614,617.804,211.482,609.296,211.482z M609.235,137.405c-8.282,0-16.607,2.791-23.438,8.512
					c-15.455,12.94-17.5,36.04-4.56,51.496c12.941,15.454,36.042,17.499,51.495,4.559l0,0c7.486-6.269,12.084-15.077,12.944-24.803
					c0.861-9.727-2.116-19.206-8.386-26.692C630.072,141.854,619.688,137.405,609.235,137.405z"/>
				<g>
					<g>
						<path style="fill:#FFFFFF;" d="M604.36,190.042c-2.222-0.606-4.223-1.439-6.003-2.498c-1.78-1.059-3.24-2.172-4.38-3.339
							c-0.657-0.695-0.908-1.456-0.753-2.285c0.125-0.668,0.469-1.205,1.034-1.612c0.565-0.407,1.204-0.544,1.918-0.41
							c0.553,0.103,1.087,0.37,1.602,0.8c1.291,1.123,2.657,2.105,4.096,2.946c1.44,0.841,3.115,1.44,5.026,1.797
							c0.714,0.133,1.401,0.22,2.06,0.26c0.66,0.04,1.306,0.024,1.939-0.049c0.633-0.072,1.218-0.207,1.756-0.405
							c0.537-0.197,1.019-0.447,1.445-0.749c0.426-0.302,0.785-0.693,1.077-1.175c0.293-0.482,0.497-1.033,0.613-1.655
							c0.215-1.151-0.022-2.179-0.711-3.082c-0.689-0.903-1.889-1.753-3.599-2.549l-5.428-2.516c-1.072-0.51-1.957-0.943-2.652-1.3
							c-0.696-0.356-1.434-0.774-2.214-1.254c-0.78-0.479-1.405-0.93-1.874-1.351c-0.469-0.421-0.919-0.916-1.349-1.485
							c-0.43-0.569-0.736-1.162-0.918-1.78c-0.182-0.618-0.29-1.317-0.323-2.098c-0.033-0.781,0.037-1.632,0.209-2.553
							c0.159-0.852,0.413-1.639,0.763-2.36s0.771-1.351,1.265-1.891c0.494-0.539,1.06-1.017,1.698-1.434
							c0.638-0.417,1.333-0.758,2.086-1.022c0.752-0.264,1.557-0.46,2.415-0.585s1.746-0.192,2.665-0.199s1.88,0.048,2.883,0.163
							l1.323-7.081c0.133-0.714,0.45-1.227,0.949-1.538c0.499-0.312,1.048-0.412,1.647-0.3c0.599,0.112,1.091,0.412,1.476,0.901
							c0.385,0.489,0.513,1.079,0.384,1.77l-1.336,7.15c1.176,0.339,2.312,0.766,3.407,1.28s1.984,0.99,2.664,1.427
							c0.681,0.437,1.334,0.893,1.961,1.367c1.006,0.736,1.408,1.645,1.206,2.728c-0.043,0.23-0.121,0.454-0.233,0.671
							c-0.112,0.217-0.254,0.405-0.427,0.564c-0.173,0.158-0.359,0.296-0.56,0.414s-0.435,0.193-0.703,0.226
							c-0.268,0.033-0.541,0.024-0.817-0.028c-0.138-0.026-0.268-0.062-0.391-0.109c-0.122-0.047-0.255-0.101-0.398-0.164
							c-0.143-0.063-0.28-0.13-0.409-0.202c-0.023-0.004-0.302-0.17-0.837-0.496c-0.535-0.326-0.92-0.559-1.156-0.699
							c-0.236-0.139-0.659-0.362-1.27-0.666c-0.61-0.305-1.143-0.547-1.598-0.728c-0.455-0.18-1.009-0.373-1.661-0.579
							c-0.653-0.205-1.301-0.368-1.946-0.489c-1.336-0.25-2.546-0.339-3.632-0.268c-1.086,0.071-2.034,0.365-2.845,0.88
							c-0.811,0.516-1.31,1.269-1.495,2.259c-0.232,1.243-0.042,2.202,0.57,2.877c0.613,0.674,1.952,1.479,4.017,2.413l5.337,2.427
							c3.447,1.574,5.828,3.306,7.143,5.196c1.315,1.89,1.725,4.159,1.23,6.807c-0.59,3.155-2.094,5.435-4.514,6.842
							c-2.419,1.407-5.4,1.958-8.942,1.653l-1.304,6.977c-0.129,0.691-0.462,1.195-0.997,1.512
							c-0.536,0.317-1.115,0.417-1.736,0.301c-0.368-0.069-0.699-0.214-0.991-0.435c-0.292-0.221-0.516-0.525-0.67-0.912
							c-0.154-0.386-0.186-0.821-0.096-1.305L604.36,190.042z"/>
					</g>
				</g>
			</g>
			<g style="opacity:0.4;">
				
					<ellipse transform="matrix(0.4948 -0.869 0.869 0.4948 125.9135 706.9788)" style="fill:#5574D8;" cx="671.042" cy="245.189" rx="26.787" ry="26.787"/>
				
					<ellipse transform="matrix(0.9935 -0.1136 0.1136 0.9935 -23.1768 78.0063)" style="fill:#708CF5;" cx="672.671" cy="242.306" rx="26.787" ry="26.787"/>
				<path style="fill:#FFFFFF;" d="M672.709,265.762c-5.088,0-10.209-1.651-14.493-5.056c-10.071-8.004-11.753-22.709-3.749-32.781
					c8.005-10.07,22.711-11.753,32.782-3.749c10.07,8.004,11.753,22.71,3.749,32.781
					C686.398,262.745,679.584,265.762,672.709,265.762z M672.756,220.119c-6.582,0-13.103,2.888-17.506,8.428
					c-7.661,9.64-6.051,23.715,3.589,31.376c9.638,7.66,23.715,6.051,31.376-3.589l0,0c7.661-9.639,6.051-23.714-3.589-31.375
					C682.527,221.701,677.624,220.119,672.756,220.119z"/>
				<g>
					<g>
						<path style="fill:#FFFFFF;" d="M671.764,252.764c-1.416-0.091-2.727-0.346-3.932-0.765c-1.205-0.419-2.224-0.91-3.057-1.473
							c-0.482-0.338-0.728-0.767-0.737-1.286c-0.007-0.419,0.134-0.786,0.425-1.101c0.291-0.315,0.659-0.477,1.107-0.485
							c0.346-0.006,0.702,0.089,1.066,0.285c0.919,0.518,1.864,0.942,2.837,1.271c0.973,0.329,2.058,0.484,3.256,0.463
							c0.447-0.008,0.873-0.04,1.276-0.098c0.403-0.058,0.791-0.147,1.165-0.269c0.373-0.122,0.71-0.276,1.01-0.462
							c0.3-0.186,0.56-0.396,0.779-0.631c0.22-0.235,0.388-0.516,0.505-0.842c0.117-0.327,0.172-0.685,0.165-1.075
							c-0.013-0.722-0.283-1.312-0.81-1.772c-0.528-0.46-1.357-0.824-2.487-1.093l-3.587-0.847c-0.71-0.175-1.298-0.327-1.762-0.456
							c-0.464-0.129-0.961-0.29-1.492-0.483c-0.53-0.193-0.963-0.387-1.298-0.584c-0.335-0.196-0.668-0.439-0.998-0.73
							c-0.33-0.29-0.588-0.61-0.775-0.961c-0.187-0.35-0.338-0.759-0.454-1.226s-0.18-0.989-0.19-1.566
							c-0.009-0.534,0.047-1.04,0.169-1.519c0.121-0.478,0.298-0.911,0.529-1.298c0.232-0.387,0.514-0.745,0.847-1.076
							c0.333-0.331,0.711-0.622,1.132-0.875c0.421-0.253,0.883-0.47,1.385-0.652c0.502-0.182,1.03-0.332,1.584-0.45
							c0.554-0.118,1.14-0.204,1.76-0.258l-0.077-4.437c-0.008-0.447,0.12-0.796,0.382-1.046c0.263-0.25,0.582-0.378,0.957-0.385
							c0.375-0.007,0.709,0.114,1.002,0.361c0.293,0.248,0.443,0.588,0.451,1.021l0.078,4.481c0.752,0.059,1.49,0.176,2.215,0.351
							c0.725,0.175,1.32,0.352,1.785,0.532c0.465,0.18,0.916,0.374,1.353,0.583c0.698,0.32,1.054,0.819,1.065,1.497
							c0.003,0.144-0.017,0.289-0.057,0.434c-0.041,0.145-0.103,0.276-0.188,0.393c-0.085,0.117-0.18,0.223-0.287,0.319
							s-0.239,0.17-0.397,0.223c-0.158,0.053-0.323,0.081-0.496,0.085c-0.087,0.001-0.17-0.004-0.249-0.017
							c-0.08-0.013-0.167-0.03-0.261-0.05c-0.094-0.02-0.185-0.044-0.272-0.071c-0.014,0-0.203-0.065-0.566-0.196
							c-0.363-0.131-0.625-0.224-0.784-0.279c-0.16-0.055-0.443-0.137-0.849-0.245c-0.406-0.108-0.758-0.189-1.054-0.241
							c-0.297-0.053-0.655-0.1-1.074-0.144c-0.419-0.043-0.831-0.061-1.235-0.054c-0.837,0.015-1.579,0.111-2.225,0.288
							c-0.646,0.177-1.183,0.472-1.608,0.883c-0.426,0.412-0.634,0.928-0.623,1.548c0.014,0.779,0.247,1.335,0.7,1.666
							c0.453,0.331,1.361,0.651,2.723,0.959l3.522,0.805c2.276,0.523,3.927,1.274,4.954,2.252c1.028,0.978,1.556,2.297,1.585,3.956
							c0.034,1.977-0.591,3.54-1.878,4.688c-1.286,1.148-3.017,1.85-5.192,2.104l0.076,4.372c0.008,0.433-0.131,0.778-0.415,1.036
							c-0.284,0.258-0.621,0.39-1.011,0.397c-0.231,0.004-0.448-0.043-0.652-0.14c-0.204-0.098-0.376-0.253-0.517-0.467
							c-0.141-0.214-0.214-0.473-0.219-0.776L671.764,252.764z"/>
					</g>
				</g>
			</g>
			<g style="opacity:0.6;">
				
					<ellipse transform="matrix(0.1239 -0.9923 0.9923 0.1239 238.9883 838.5219)" style="fill:#5574D8;" cx="594.351" cy="283.921" rx="22.092" ry="22.092"/>
				
					<ellipse transform="matrix(0.0493 -0.9988 0.9988 0.0493 285.2179 863.5098)" style="fill:#708CF5;" cx="596.217" cy="281.928" rx="22.092" ry="22.092"/>
				<path style="fill:#FFFFFF;" d="M596.279,301.381c-0.808,0-1.619-0.051-2.434-0.152c-5.123-0.64-9.691-3.236-12.861-7.311
					c-6.545-8.412-5.025-20.58,3.387-27.125c8.412-6.543,20.58-5.025,27.125,3.387c6.545,8.412,5.025,20.58-3.387,27.125l0,0
					C604.683,299.971,600.554,301.381,596.279,301.381z M596.221,263.726c-3.935,0-7.896,1.258-11.236,3.855
					c-7.977,6.206-9.417,17.745-3.211,25.723c3.007,3.864,7.338,6.326,12.196,6.933c4.856,0.609,9.661-0.715,13.526-3.722l0,0
					c7.977-6.206,9.417-17.745,3.211-25.723C607.099,266.154,601.687,263.726,596.221,263.726z"/>
				<g>
					<g>
						<path style="fill:#FFFFFF;" d="M593.456,290.133c-1.117-0.348-2.118-0.808-3.003-1.378c-0.885-0.57-1.606-1.162-2.164-1.775
							c-0.321-0.365-0.434-0.756-0.34-1.174c0.076-0.337,0.26-0.603,0.555-0.8c0.294-0.196,0.621-0.254,0.981-0.173
							c0.279,0.063,0.545,0.208,0.799,0.436c0.635,0.594,1.311,1.117,2.026,1.571c0.716,0.453,1.555,0.788,2.52,1.004
							c0.36,0.081,0.707,0.137,1.042,0.17c0.334,0.032,0.663,0.036,0.986,0.011c0.323-0.025,0.622-0.083,0.899-0.173
							c0.276-0.091,0.526-0.208,0.747-0.354s0.411-0.338,0.569-0.577c0.157-0.239,0.271-0.516,0.341-0.829
							c0.13-0.581,0.029-1.107-0.305-1.578c-0.333-0.471-0.927-0.925-1.781-1.36l-2.711-1.377c-0.535-0.279-0.976-0.515-1.323-0.708
							c-0.347-0.194-0.714-0.419-1.102-0.677c-0.388-0.258-0.696-0.498-0.927-0.72c-0.231-0.223-0.45-0.482-0.658-0.779
							c-0.208-0.297-0.353-0.604-0.434-0.921c-0.081-0.317-0.123-0.674-0.126-1.071c-0.003-0.397,0.048-0.828,0.153-1.293
							c0.096-0.43,0.24-0.824,0.43-1.184c0.19-0.36,0.416-0.672,0.677-0.937c0.261-0.265,0.557-0.497,0.888-0.697
							c0.332-0.2,0.691-0.361,1.078-0.481c0.387-0.121,0.799-0.205,1.237-0.253c0.438-0.048,0.89-0.066,1.357-0.053
							c0.467,0.013,0.954,0.058,1.461,0.136l0.801-3.572c0.081-0.36,0.251-0.615,0.51-0.764c0.259-0.149,0.54-0.19,0.842-0.122
							c0.302,0.068,0.546,0.229,0.733,0.485c0.187,0.255,0.241,0.557,0.163,0.906l-0.809,3.607c0.591,0.193,1.16,0.431,1.707,0.712
							c0.547,0.281,0.989,0.539,1.327,0.773c0.338,0.234,0.661,0.478,0.971,0.73c0.498,0.392,0.685,0.861,0.563,1.407
							c-0.026,0.116-0.07,0.228-0.13,0.337c-0.061,0.108-0.137,0.201-0.227,0.279c-0.091,0.077-0.188,0.144-0.292,0.2
							c-0.104,0.056-0.224,0.09-0.361,0.102s-0.275,0.002-0.414-0.029c-0.07-0.016-0.135-0.036-0.197-0.062
							c-0.061-0.026-0.128-0.056-0.199-0.09c-0.072-0.034-0.14-0.071-0.204-0.11c-0.012-0.003-0.15-0.092-0.416-0.267
							c-0.266-0.176-0.457-0.301-0.574-0.376c-0.117-0.075-0.328-0.196-0.633-0.362c-0.304-0.166-0.57-0.299-0.798-0.399
							c-0.228-0.1-0.505-0.208-0.833-0.324c-0.328-0.116-0.654-0.211-0.979-0.284c-0.674-0.151-1.287-0.219-1.839-0.202
							c-0.553,0.016-1.04,0.148-1.461,0.395c-0.421,0.247-0.688,0.62-0.8,1.12c-0.141,0.627-0.062,1.118,0.237,1.471
							c0.299,0.354,0.964,0.787,1.996,1.299l2.666,1.33c1.722,0.862,2.9,1.785,3.533,2.769c0.633,0.984,0.8,2.144,0.5,3.479
							c-0.357,1.591-1.163,2.722-2.417,3.392c-1.254,0.67-2.778,0.896-4.571,0.677l-0.789,3.519
							c-0.078,0.349-0.256,0.598-0.534,0.749c-0.278,0.151-0.574,0.192-0.887,0.121c-0.186-0.042-0.351-0.121-0.495-0.239
							c-0.144-0.118-0.252-0.276-0.323-0.475c-0.071-0.199-0.08-0.42-0.025-0.664L593.456,290.133z"/>
					</g>
				</g>
			</g>
			<g style="opacity:0.4;">
				
					<ellipse transform="matrix(0.009 -1 1 0.009 447.5823 664.6352)" style="fill:#5574D8;" cx="559.097" cy="106.514" rx="17.593" ry="17.593"/>
				
					<ellipse transform="matrix(0.1239 -0.9923 0.9923 0.1239 387.021 648.1939)" style="fill:#708CF5;" cx="560.584" cy="104.926" rx="17.593" ry="17.593"/>
				<path style="fill:#FFFFFF;" d="M560.633,120.519c-0.646,0-1.298-0.04-1.95-0.122c-4.107-0.513-7.768-2.594-10.31-5.86
					c-5.246-6.744-4.028-16.498,2.715-21.744c6.744-5.248,16.497-4.029,21.743,2.714c2.542,3.267,3.659,7.327,3.146,11.435
					c-0.513,4.106-2.595,7.768-5.861,10.31l0,0C567.369,119.389,564.06,120.519,560.633,120.519z M560.586,90.533
					c-3.111,0-6.244,0.994-8.885,3.048c-6.308,4.908-7.446,14.033-2.539,20.341c4.907,6.308,14.032,7.447,20.341,2.539
					c3.056-2.378,5.003-5.803,5.482-9.645c0.479-3.842-0.565-7.641-2.943-10.696C569.188,92.454,564.908,90.533,560.586,90.533z"/>
				<g>
					<g>
						<path style="fill:#FFFFFF;" d="M558.385,111.461c-0.89-0.277-1.687-0.643-2.391-1.097c-0.704-0.454-1.279-0.926-1.723-1.414
							c-0.256-0.291-0.346-0.602-0.271-0.935c0.06-0.268,0.207-0.48,0.441-0.637c0.234-0.156,0.495-0.202,0.781-0.138
							c0.222,0.05,0.434,0.165,0.636,0.347c0.506,0.473,1.044,0.89,1.614,1.251c0.57,0.361,1.239,0.628,2.006,0.8
							c0.287,0.064,0.563,0.109,0.83,0.135c0.266,0.026,0.528,0.029,0.785,0.008c0.257-0.02,0.496-0.066,0.716-0.138
							c0.22-0.072,0.419-0.166,0.595-0.282c0.177-0.116,0.328-0.269,0.453-0.459s0.216-0.411,0.272-0.66
							c0.104-0.463,0.023-0.881-0.243-1.257c-0.266-0.375-0.738-0.736-1.418-1.083l-2.159-1.096
							c-0.426-0.222-0.777-0.41-1.054-0.564c-0.276-0.154-0.569-0.334-0.877-0.539c-0.308-0.205-0.555-0.396-0.738-0.574
							c-0.184-0.177-0.358-0.384-0.524-0.62c-0.165-0.236-0.281-0.481-0.345-0.733c-0.065-0.253-0.098-0.537-0.1-0.853
							c-0.002-0.316,0.039-0.659,0.122-1.029c0.077-0.342,0.191-0.657,0.343-0.943c0.152-0.287,0.331-0.535,0.539-0.746
							c0.208-0.211,0.443-0.396,0.708-0.555c0.264-0.159,0.55-0.287,0.858-0.383c0.308-0.096,0.636-0.163,0.985-0.202
							c0.349-0.038,0.709-0.052,1.08-0.042c0.372,0.01,0.759,0.047,1.163,0.108l0.638-2.844c0.064-0.287,0.2-0.49,0.406-0.608
							c0.206-0.119,0.43-0.151,0.67-0.097c0.24,0.054,0.435,0.183,0.584,0.386c0.149,0.203,0.192,0.444,0.13,0.721l-0.644,2.872
							c0.471,0.154,0.924,0.343,1.359,0.567s0.788,0.429,1.057,0.616c0.269,0.187,0.527,0.381,0.773,0.581
							c0.396,0.312,0.546,0.686,0.448,1.121c-0.021,0.092-0.055,0.182-0.104,0.268c-0.048,0.086-0.109,0.16-0.181,0.222
							c-0.072,0.062-0.15,0.115-0.232,0.159c-0.083,0.045-0.179,0.072-0.288,0.081c-0.109,0.01-0.219,0.002-0.33-0.023
							c-0.055-0.013-0.108-0.029-0.156-0.05c-0.049-0.021-0.102-0.045-0.159-0.072c-0.057-0.027-0.111-0.056-0.163-0.087
							c-0.009-0.002-0.12-0.073-0.331-0.213c-0.212-0.14-0.364-0.24-0.457-0.299c-0.093-0.06-0.261-0.156-0.504-0.288
							c-0.242-0.132-0.454-0.238-0.636-0.317c-0.181-0.079-0.402-0.166-0.663-0.258c-0.261-0.093-0.521-0.168-0.78-0.226
							c-0.536-0.12-1.025-0.174-1.465-0.161c-0.44,0.013-0.828,0.118-1.164,0.315c-0.336,0.197-0.548,0.494-0.637,0.892
							c-0.112,0.5-0.049,0.89,0.189,1.172c0.238,0.282,0.768,0.626,1.59,1.034l2.123,1.059c1.371,0.687,2.309,1.421,2.813,2.205
							c0.504,0.784,0.637,1.707,0.399,2.771c-0.284,1.267-0.926,2.168-1.925,2.701c-0.999,0.534-2.212,0.713-3.64,0.539
							l-0.629,2.803c-0.062,0.277-0.204,0.476-0.425,0.597c-0.221,0.12-0.457,0.152-0.706,0.096
							c-0.148-0.033-0.279-0.097-0.394-0.19c-0.115-0.094-0.201-0.22-0.258-0.378c-0.057-0.159-0.063-0.335-0.02-0.529
							L558.385,111.461z"/>
					</g>
				</g>
			</g>
		</g>
		<g>
			<path style="fill:#9BABE8;" d="M571.076,244.767c0.165,0.716-0.281,1.429-0.997,1.594c-0.716,0.165-1.429-0.281-1.594-0.997
				c-0.165-0.716,0.281-1.429,0.997-1.594C570.198,243.605,570.911,244.051,571.076,244.767z"/>
			<path style="fill:#9BABE8;" d="M527.705,111.23c0.111,0.483-0.19,0.965-0.673,1.076c-0.483,0.111-0.965-0.19-1.076-0.673
				c-0.111-0.483,0.19-0.965,0.673-1.076C527.112,110.446,527.594,110.747,527.705,111.23z"/>
			<path style="fill:#9BABE8;" d="M649.628,306.749c0.165,0.716-0.281,1.429-0.997,1.594c-0.716,0.165-1.429-0.281-1.594-0.997
				c-0.165-0.715,0.281-1.429,0.997-1.594C648.749,305.587,649.463,306.034,649.628,306.749z"/>
			<path style="fill:#9BABE8;" d="M613.541,79.231c0.165,0.716-0.281,1.429-0.997,1.594c-0.716,0.165-1.429-0.281-1.594-0.997
				c-0.165-0.716,0.281-1.429,0.997-1.594C612.662,78.069,613.376,78.516,613.541,79.231z"/>
			<path style="fill:#9BABE8;" d="M531.802,76.248c0.165,0.715-0.281,1.429-0.997,1.594c-0.716,0.165-1.429-0.281-1.594-0.997
				c-0.165-0.715,0.281-1.429,0.997-1.594C530.924,75.086,531.637,75.532,531.802,76.248z"/>
			<path style="fill:#9BABE8;" d="M695.622,283.932c0.305,1.323-0.52,2.642-1.843,2.947c-1.323,0.305-2.642-0.52-2.947-1.843
				c-0.305-1.323,0.52-2.642,1.843-2.947C693.998,281.785,695.317,282.61,695.622,283.932z"/>
			<path style="fill:#9BABE8;" d="M707.347,203.366c0.305,1.323-0.52,2.642-1.843,2.947c-1.323,0.305-2.642-0.52-2.947-1.843
				c-0.305-1.322,0.52-2.642,1.843-2.947C705.723,201.219,707.042,202.044,707.347,203.366z"/>
			<path style="fill:#9987F2;" d="M620.597,243.337c0.152,0.661-0.26,1.321-0.921,1.473c-0.661,0.152-1.321-0.26-1.473-0.921
				c-0.153-0.661,0.26-1.321,0.921-1.473C619.785,242.263,620.444,242.676,620.597,243.337z"/>
			<path style="fill:#FFFFFF;" d="M637.447,274.693c0.153,0.661-0.26,1.321-0.921,1.473c-0.661,0.152-1.321-0.26-1.473-0.921
				c-0.152-0.661,0.26-1.321,0.921-1.473C636.635,273.619,637.294,274.032,637.447,274.693z"/>
			<path style="fill:#FFFFFF;" d="M557.469,141.365c0.152,0.661-0.26,1.321-0.921,1.473c-0.661,0.152-1.321-0.26-1.473-0.921
				c-0.152-0.661,0.26-1.321,0.921-1.473C556.657,140.291,557.317,140.704,557.469,141.365z"/>
			<path style="fill:#FFFFFF;" d="M714.643,256.037c0.152,0.661-0.26,1.321-0.921,1.473c-0.661,0.152-1.321-0.26-1.473-0.921
				c-0.152-0.661,0.26-1.321,0.921-1.473C713.831,254.964,714.491,255.376,714.643,256.037z"/>
			<polygon style="fill:#9987F2;" points="673.767,192.197 670.427,199.758 668.343,191.599 661.467,188.026 668.981,185.156 
				672.464,177.367 674.709,185.723 681.514,190.012 			"/>
			<polygon style="fill:#9987F2;" points="492.177,75.755 490.465,79.631 489.397,75.449 485.873,73.617 489.724,72.146 
				491.509,68.154 492.66,72.437 496.148,74.635 			"/>
			<polygon style="fill:#FFFFFF;" points="606.725,321.412 604.759,325.863 603.532,321.06 599.485,318.957 603.908,317.267 
				605.958,312.682 607.28,317.601 611.286,320.126 			"/>
			<polygon style="fill:#FFFFFF;" points="689.187,153.954 687.221,158.405 685.995,153.602 681.947,151.499 686.37,149.809 
				688.421,145.224 689.742,150.143 693.748,152.668 			"/>
			<path style="fill:#9BABE8;" d="M470.716,105.164c0.152,0.661-0.26,1.321-0.921,1.473c-0.661,0.152-1.321-0.26-1.473-0.921
				c-0.152-0.661,0.26-1.321,0.921-1.473C469.904,104.09,470.564,104.503,470.716,105.164z"/>
			<path style="fill:#9BABE8;" d="M633.165,116.359c0.305,1.323-0.52,2.642-1.843,2.947c-1.323,0.305-2.642-0.52-2.947-1.843
				c-0.305-1.322,0.52-2.642,1.843-2.947C631.541,114.212,632.86,115.037,633.165,116.359z"/>
		</g>
	</g>
	<g>
		<g>
			<g>
				<g>
					<g>
						<g>
							<g>
								<path style="fill:#121936;" d="M451.13,123.088l-1.638-1.237c-10.487-7.918-18.174-15.621-23.666-25.761
									c-0.956-24.498-39.417-47.311-52.229-37.208c-0.387,0.305-13.144-7.162-30.715-2.143c-0.525-1.694-1.206-3.388-2.092-5.047
									c-5.666-10.612-16.681-15.787-24.602-11.558c-4.049,2.162-6.494,6.366-7.172,11.373
									c-8.173,0.216-15.217,3.961-18.119,10.511c-4.456,10.055,2.537,22.906,15.618,28.702c0.529,0.234,1.061,0.448,1.593,0.653
									c-5.227,9.5-12.496,16.976-22.284,24.695l-1.612,1.271c-21.912,17.28-21.613,47.958-6.066,62.04l4.481,4.1
									c0.693,0.634,1.409,1.241,2.144,1.822c2.676,2.117,3.982,5.151,3.448,8.287c-0.989,5.82-0.816,11.891,0.849,18.043
									c6.192,22.878,31.225,38.798,59.127,37.413c3.636-0.18,7.178-0.631,10.602-1.325c8.973,4.994,19.608,8.065,31.141,8.394
									c27.925,0.796,52.616-15.648,58.324-38.652c1.535-6.186,1.581-12.258,0.469-18.057c-0.599-3.123,0.642-6.184,3.273-8.357
									c0.723-0.597,1.426-1.219,2.105-1.867l4.394-4.194C473.75,170.58,473.402,139.902,451.13,123.088z"/>
								<path style="opacity:0.33;fill:#363950;" d="M451.13,123.088l-0.806-0.609c11.282,17.675,8.202,40.445-4.917,51.682
									l-4.593,3.975c-0.711,0.615-1.443,1.202-2.194,1.762c-2.734,2.042-4.123,5.039-3.677,8.188
									c0.828,5.846,0.486,11.908-1.349,18.012c-5.217,17.353-21.335,30.325-41.081,34.513c-7.93-1.292-15.283-3.889-21.766-7.497
									c-3.424,0.694-6.966,1.145-10.602,1.325c-5.002,0.248-9.908-0.068-14.633-0.873c-0.934-0.519-1.855-1.053-2.753-1.611
									c-0.978,0.149-1.967,0.273-2.962,0.381c-19.003-5.008-34.152-18.215-38.779-35.31c-1.665-6.152-1.839-12.222-0.849-18.043
									c0.533-3.135-0.772-6.17-3.448-8.287c-0.735-0.581-1.451-1.188-2.144-1.823l-4.481-4.1
									c-11.678-10.577-14.751-30.518-6.271-47.111c-21.509,17.336-21.13,47.72-5.678,61.716l4.481,4.1
									c0.693,0.634,1.409,1.241,2.144,1.822c2.676,2.117,3.982,5.151,3.448,8.287c-0.989,5.82-0.816,11.891,0.849,18.043
									c2.063,7.621,6.225,14.463,11.879,20.158c0.004,0.004,0.007,0.007,0.011,0.011c0.446,0.449,0.901,0.889,1.365,1.323
									c0.047,0.044,0.094,0.088,0.141,0.132c0.446,0.414,0.899,0.82,1.361,1.221c0.064,0.055,0.129,0.11,0.193,0.165
									c0.46,0.395,0.926,0.783,1.401,1.164c0.057,0.046,0.116,0.091,0.174,0.137c2.529,2.01,5.267,3.822,8.182,5.415
									c0.135,0.074,0.268,0.15,0.404,0.223c0.448,0.24,0.902,0.471,1.358,0.701c0.214,0.108,0.427,0.217,0.643,0.323
									c0.425,0.208,0.854,0.409,1.285,0.608c0.255,0.118,0.511,0.235,0.769,0.35c0.412,0.183,0.827,0.363,1.245,0.537
									c0.285,0.12,0.573,0.236,0.861,0.352c0.405,0.163,0.811,0.324,1.221,0.478c0.31,0.117,0.623,0.229,0.936,0.341
									c0.398,0.143,0.796,0.287,1.198,0.423c0.342,0.115,0.688,0.222,1.032,0.332c0.383,0.122,0.763,0.247,1.15,0.362
									c0.444,0.132,0.893,0.253,1.341,0.376c0.513,0.141,1.029,0.277,1.548,0.405c0.51,0.127,1.02,0.253,1.535,0.368
									c0.321,0.072,0.647,0.134,0.97,0.201c0.45,0.093,0.899,0.187,1.353,0.271c0.339,0.063,0.681,0.118,1.022,0.176
									c0.445,0.075,0.89,0.149,1.338,0.215c0.345,0.051,0.692,0.097,1.038,0.143c0.451,0.06,0.902,0.115,1.356,0.166
									c0.346,0.038,0.692,0.074,1.04,0.107c0.465,0.044,0.931,0.083,1.398,0.117c0.338,0.025,0.676,0.05,1.015,0.07
									c0.49,0.029,0.982,0.049,1.475,0.068c0.321,0.012,0.641,0.027,0.964,0.034c0.546,0.012,1.093,0.013,1.642,0.013
									c0.271,0,0.541,0.005,0.813,0.001c0.822-0.011,1.645-0.034,2.473-0.075c3.636-0.18,7.178-0.631,10.602-1.325
									c8.973,4.994,19.608,8.065,31.141,8.394c0.814,0.023,1.624,0.029,2.432,0.023c0.263-0.002,0.523-0.011,0.785-0.016
									c0.547-0.01,1.093-0.024,1.638-0.047c0.305-0.013,0.609-0.031,0.914-0.048c0.5-0.028,0.999-0.061,1.497-0.1
									c0.314-0.025,0.627-0.051,0.939-0.08c0.496-0.046,0.99-0.099,1.483-0.156c0.299-0.035,0.599-0.067,0.897-0.106
									c0.537-0.069,1.071-0.149,1.603-0.231c0.246-0.038,0.493-0.071,0.739-0.111c0.76-0.126,1.515-0.263,2.265-0.414
									c0.204-0.041,0.406-0.09,0.609-0.133c0.552-0.117,1.103-0.236,1.649-0.366c0.309-0.074,0.615-0.154,0.922-0.232
									c0.437-0.111,0.873-0.223,1.306-0.342c0.331-0.091,0.66-0.187,0.99-0.283c0.404-0.118,0.805-0.24,1.205-0.365
									c0.337-0.106,0.674-0.213,1.008-0.324c0.387-0.128,0.77-0.263,1.152-0.398c0.335-0.118,0.672-0.235,1.004-0.359
									c0.385-0.143,0.764-0.295,1.145-0.445c0.329-0.13,0.66-0.255,0.986-0.39c0.632-0.262,1.258-0.533,1.877-0.814
									c0.365-0.165,0.722-0.34,1.082-0.512c0.302-0.144,0.605-0.285,0.903-0.434c0.371-0.184,0.737-0.376,1.103-0.567
									c0.277-0.145,0.553-0.289,0.827-0.438c0.372-0.202,0.741-0.408,1.108-0.617c0.254-0.145,0.506-0.292,0.757-0.439
									c0.377-0.222,0.753-0.447,1.124-0.676c0.217-0.135,0.431-0.273,0.646-0.41c0.395-0.252,0.79-0.504,1.178-0.764
									c0.1-0.068,0.198-0.138,0.298-0.206c1.447-0.986,2.836-2.031,4.166-3.131c0.124-0.103,0.25-0.203,0.373-0.307
									c0.386-0.325,0.764-0.657,1.14-0.991c0.136-0.122,0.273-0.243,0.408-0.365c0.372-0.338,0.738-0.681,1.099-1.028
									c0.12-0.115,0.238-0.232,0.357-0.348c0.374-0.367,0.744-0.736,1.105-1.112c0.064-0.067,0.126-0.135,0.189-0.202
									c1.669-1.757,3.197-3.616,4.572-5.566c0.054-0.077,0.11-0.154,0.164-0.231c0.305-0.439,0.6-0.882,0.89-1.33
									c0.07-0.108,0.14-0.216,0.209-0.325c0.283-0.446,0.559-0.895,0.826-1.35c0.057-0.097,0.112-0.194,0.168-0.292
									c0.277-0.48,0.548-0.962,0.807-1.451c0,0,0.001-0.001,0.001-0.001c0,0,0,0,0,0c1.645-3.105,2.928-6.388,3.78-9.821
									c1.535-6.186,1.581-12.258,0.469-18.057c-0.599-3.123,0.642-6.184,3.273-8.357c0.723-0.597,1.426-1.219,2.105-1.867
									l4.394-4.194C473.75,170.58,473.402,139.902,451.13,123.088z"/>
							</g>
						</g>
					</g>
				</g>
			</g>
			<g>
				<g>
					<path style="fill:#5D33FF;" d="M350.532,192.091l19.03,1.357l26.99-1.378l49.991,2.953c0,0,67.68,4.163,66.178,104.428
						c-0.025,1.645-1.084,3.094-2.688,3.457l-55.863,11.441c1.585,34.667,3.098,76.268,3.312,89.137l-9.842-0.053l-79.2-0.49
						l-85.879,0.543l0,0c0.357-13.068,1.129-53.869,3.148-89.137l-51.211-9.339c-1.621-0.283-2.762-1.676-2.858-3.319
						C224.201,174.833,350.532,192.091,350.532,192.091z"/>
				</g>
				<path style="opacity:0.6;fill:#481EEF;" d="M350.532,206.232l19.031,0.949l26.99-0.963l49.991,2.063
					c0,0,37.029,1.604,55.696,30.797c-18.671-41.765-55.696-44.055-55.696-44.055l-49.991-2.953l-26.99,1.378l-19.031-1.357
					c0,0-78.626-10.723-108.162,47.048C271.89,198.746,350.532,206.232,350.532,206.232z"/>
			</g>
			<g>
				<g>
					<g>
						<g>
							<path style="fill:#FF9C9C;" d="M420.645,147.809l-3.588-34.765c-6.13-9.389-22.073-11.835-28.005-18.649
								c-4.715-5.415-6.117-11.603-6.388-16.255l-0.5,5.083c-2.28,23.185-19.035,40.523-37.473,38.841l0.026,0.253l-6.024,0.209
								c-8.118,0.282-14.53,7.155-14.248,15.274l0.012,0.337c0.282,8.118,7.155,14.53,15.273,14.248l3.895-0.135l-1.649,53.704
								c0.099,14.536,14.445,22.722,29.214,22.622l0.613-0.004c14.769-0.1,26.772-12.075,26.673-26.611l-0.131-19.339
								C412.669,177.751,422.265,163.498,420.645,147.809z"/>
						</g>
					</g>
				</g>
				<path style="fill:none;stroke:#FF6969;stroke-width:5;stroke-linecap:round;stroke-linejoin:round;stroke-miterlimit:10;" d="
					M337.117,136.718"/>
				<g>
					<path style="fill:#FF6969;" d="M337.675,142.521c-0.327,0-0.647-0.16-0.839-0.454c-0.302-0.462-0.171-1.082,0.292-1.384
						l3.842-2.505l-4.372-4.864c-0.369-0.411-0.335-1.043,0.075-1.412c0.41-0.369,1.042-0.336,1.413,0.075l5.152,5.733
						c0.195,0.217,0.285,0.509,0.247,0.798c-0.038,0.29-0.2,0.548-0.445,0.708l-4.82,3.143
						C338.052,142.469,337.862,142.521,337.675,142.521z"/>
					<g>
						<path style="fill:#121936;" d="M411.332,130.589c0.361,1.691-0.718,3.354-2.409,3.715c-1.691,0.361-3.354-0.718-3.715-2.409
							c-0.361-1.691,0.718-3.354,2.409-3.715C409.309,127.819,410.972,128.898,411.332,130.589z"/>
						<path style="fill:#121936;" d="M383.118,130.121c-0.076,1.727-1.539,3.066-3.266,2.99c-1.728-0.076-3.066-1.539-2.99-3.266
							c0.076-1.727,1.539-3.066,3.266-2.99C381.856,126.931,383.194,128.393,383.118,130.121z"/>
						<path style="fill:#FF6969;" d="M390.91,153.66c-5.111,0-8.961-1.36-11.442-4.044c-3.111-3.364-2.815-7.536-2.801-7.712
							c0.066-0.826,0.797-1.445,1.615-1.375c0.823,0.066,1.438,0.785,1.376,1.608c-0.005,0.069-0.171,3.11,2.041,5.474
							c1.894,2.024,4.992,3.05,9.21,3.05c0.018,0,0.032,0.006,0.054,0c0.827,0,1.498,0.669,1.5,1.497
							c0.002,0.829-0.669,1.502-1.497,1.503C390.947,153.66,390.929,153.66,390.91,153.66z"/>
						<g>
							<g>
								<path style="fill:#FF6969;" d="M398.075,168.919c-0.127,0.038-0.267,0.034-0.4-0.021c-0.133-0.056-3.326-1.341-5.587,1.206
									c-0.218,0.245-0.594,0.268-0.841,0.05c-0.246-0.218-0.269-0.595-0.051-0.841c2.838-3.193,6.899-1.53,6.941-1.513
									c0.302,0.128,0.443,0.476,0.316,0.778C398.382,168.75,398.24,168.87,398.075,168.919z"/>
							</g>
						</g>
						<g>
							<g>
								<g>
									<g>
										<g>
											<g>
												<path style="fill:#121936;" d="M368.608,119.011c1.129,0.253,2.455-0.133,3.758-0.433
													c1.306-0.329,2.625-0.627,3.781-0.846c1.158-0.22,2.496-0.426,3.832-0.598c1.323-0.199,2.705-0.327,3.648-0.972
													c0.914-0.609,1.09-1.889-0.367-3.146c-1.378-1.231-4.565-2.25-8.398-1.532c-3.825,0.735-6.371,2.841-7.159,4.483
													C366.854,117.662,367.522,118.782,368.608,119.011z"/>
											</g>
										</g>
									</g>
									<g>
										<g>
											<g>
												<path style="fill:#121936;" d="M413.48,118.879c-0.775,0.254-1.699,0.016-2.606-0.155
													c-0.909-0.194-1.827-0.363-2.63-0.477c-0.805-0.115-1.734-0.212-2.66-0.281c-0.918-0.091-1.876-0.124-2.541-0.583
													c-0.644-0.432-0.792-1.427,0.188-2.484c0.926-1.033,3.107-1.988,5.77-1.614c2.658,0.389,4.461,1.915,5.04,3.163
													C414.664,117.735,414.226,118.646,413.48,118.879z"/>
											</g>
										</g>
									</g>
								</g>
							</g>
						</g>
						<g>
							<path style="fill:#FF9C9C;" d="M376.863,133.364c0,0,2.733-2.095,5.517,0.215"/>
							<path style="fill:#FF6969;" d="M382.379,134.58c-0.225,0-0.451-0.076-0.638-0.23c-2.082-1.728-4.056-0.35-4.276-0.188
								c-0.44,0.328-1.065,0.243-1.397-0.197c-0.331-0.439-0.25-1.06,0.186-1.394c1.165-0.892,4.077-1.991,6.765,0.24
								c0.425,0.353,0.483,0.983,0.131,1.408C382.951,134.456,382.667,134.58,382.379,134.58z"/>
						</g>
						<g>
							<path style="fill:#FF9C9C;" d="M405.079,134.143c0,0,3.067-1.927,5.878,0.547"/>
							<path style="fill:#FF6969;" d="M410.958,135.69c-0.235,0-0.471-0.082-0.661-0.249c-2.195-1.933-4.591-0.51-4.69-0.448
								c-0.472,0.286-1.084,0.143-1.375-0.325c-0.289-0.467-0.15-1.079,0.315-1.372c1.278-0.804,4.403-1.706,7.072,0.643
								c0.414,0.365,0.454,0.997,0.09,1.411C411.511,135.576,411.235,135.69,410.958,135.69z"/>
						</g>
					</g>
					<path style="fill:#FF6969;" d="M398.214,182.87c0,0-29.301,2.562-34.641-7.687c-5.34-10.249,0,0,0,0
						s-0.692,15.998,35.039,22.88L398.214,182.87z"/>
					<path style="fill:#FF6969;" d="M394.602,145.06c-0.131,0-0.262-0.003-0.395-0.009l-2.692-0.118
						c-0.828-0.036-1.47-0.736-1.434-1.564c0.037-0.828,0.744-1.479,1.564-1.433l2.692,0.118c3.253,0.131,6.041-2.399,6.185-5.666
						c0.02-0.438-0.322-0.812-0.762-0.832c-3.357-0.147-5.97-2.997-5.824-6.355l0.291-6.646c0.037-0.828,0.741-1.469,1.564-1.433
						c0.828,0.036,1.47,0.736,1.434,1.564l-0.291,6.646c-0.074,1.705,1.252,3.153,2.957,3.228c2.091,0.092,3.719,1.868,3.629,3.959
						C403.31,141.307,399.348,145.06,394.602,145.06z"/>
					<path style="fill:#FFFFFF;" d="M331.432,150.18c-0.19,3.093,2.165,5.754,5.26,5.945c3.095,0.19,5.758-2.163,5.948-5.256
						s-2.165-5.755-5.26-5.945C334.285,144.734,331.622,147.087,331.432,150.18z"/>
				</g>
			</g>
		</g>
		<g>
			<path style="fill:#FF9C9C;" d="M305.991,211.658l-39.251-10.335l0.157-0.27l-30.23-7.296
				c-18.023-3.246-36.365,3.726-47.681,18.124l-6.917,8.802c-3.502,4.456-4.616,10.337-2.985,15.765
				c0.218,0.725,0.479,1.427,0.761,2.118c-0.325-0.061-4.589,70.851,6.233,112.906c14.494,56.322,101.323,37.276,101.323,37.276
				l3.055-74.397l-32.578-7.563l-18.402-34.942c4.203-0.159,8.181-1.328,11.308-4.177c12.441-11.331-11.664-27.206-11.664-27.206
				c10.053,2.465,13.945,14.234,13.945,14.234s3.73,2.783,8.74-6.515c5.009-9.298-12.084-22.268-12.084-22.268l4.954,3.767
				c4.317,3.283,7.335,7.984,8.525,13.275l0.192,0.854l1.79-1.317c4.924-3.623,7.146-10.007,5.212-15.807
				c-1.204-3.611-3.528-6.709-5.697-9.019l21.41,6.016l8.447,2.006c6.746,1.602,13.557-1.374,15.97-6.979l0,0
				C311.805,215.732,309.617,212.326,305.991,211.658z"/>
			<g>
				<path style="fill:#FF6969;" d="M257.878,306.787c0,0,10.35,29.526,10.345,28.517c-0.005-1.009-3.363-26.876-3.363-26.876
					L257.878,306.787z"/>
				<g>
					<g>
						<path style="fill:#FF6969;" d="M233.569,238.122c2.432,0.191,4.621,0.884,6.747,1.849c2.108,0.971,4.067,2.252,5.83,3.76
							c0.833,0.801,1.722,1.558,2.451,2.458c0.374,0.441,0.779,0.859,1.126,1.32l1.019,1.401c0.356,0.458,0.656,0.949,0.945,1.448
							l0.887,1.485c0.541,1.015,1.015,2.063,1.525,3.095c0.244,0.495,0.041,1.094-0.454,1.338c-0.495,0.244-1.094,0.041-1.338-0.454
							c-0.001-0.003-0.003-0.006-0.004-0.008l-0.046-0.096c-0.467-0.982-0.899-1.986-1.393-2.954l-0.812-1.412
							c-0.263-0.476-0.538-0.945-0.865-1.378l-0.933-1.332c-0.317-0.439-0.69-0.833-1.032-1.252
							c-0.667-0.857-1.484-1.57-2.246-2.335c-1.617-1.431-3.418-2.654-5.361-3.591c-1.922-0.93-4.069-1.616-6.105-1.812
							l-0.075-0.007c-0.42-0.04-0.728-0.414-0.688-0.834C232.788,238.395,233.155,238.09,233.569,238.122z"/>
						<path style="fill:#FF6969;" d="M246.93,224.72c2.324,0.575,4.372,1.612,6.296,2.903c1.91,1.295,3.626,2.872,5.114,4.641
							c0.688,0.923,1.44,1.813,2.011,2.818c0.296,0.495,0.627,0.973,0.893,1.483l0.775,1.547c0.276,0.509,0.492,1.042,0.695,1.581
							l0.632,1.609c0.368,1.089,0.664,2.2,0.999,3.302c0.16,0.528-0.138,1.086-0.666,1.247c-0.528,0.16-1.086-0.138-1.247-0.666
							c-0.002-0.007-0.004-0.015-0.007-0.022l-0.028-0.101c-0.287-1.049-0.534-2.113-0.85-3.155l-0.551-1.535
							c-0.176-0.516-0.364-1.026-0.609-1.511l-0.684-1.479c-0.236-0.489-0.533-0.943-0.797-1.418
							c-0.507-0.964-1.187-1.812-1.805-2.703c-1.345-1.701-2.909-3.229-4.667-4.501c-1.743-1.263-3.735-2.321-5.748-2.885
							l-0.057-0.016c-0.313-0.088-0.496-0.413-0.408-0.726C246.307,224.826,246.622,224.644,246.93,224.72z"/>
					</g>
					<g>
						<path style="fill:#FF9C9C;" d="M296.621,211.551l0.186,2.666c0.12,1.718,1.476,3.17,3.132,3.38
							c2.2,0.28,5.047-0.032,6.388-2.995"/>
						<path style="fill:#FF6969;" d="M301.167,218.678c-0.436,0-0.887-0.03-1.354-0.089c-2.13-0.271-3.851-2.121-4.004-4.303
							l-0.186-2.666c-0.038-0.551,0.378-1.029,0.929-1.067c0.538-0.034,1.029,0.377,1.067,0.928l0.186,2.666
							c0.085,1.227,1.078,2.308,2.26,2.458c2.67,0.341,4.472-0.473,5.351-2.416c0.228-0.503,0.82-0.727,1.323-0.499
							c0.504,0.228,0.727,0.82,0.499,1.324C306.155,217.405,304.025,218.678,301.167,218.678z"/>
					</g>
				</g>
				<path style="fill:#FF6969;" d="M239.346,271.659c0,0-9.484,4.409-21.951-1.569c0,0,10.309,14.536,25.823,8.926L239.346,271.659z
					"/>
			</g>
		</g>
		<g>
			<g>
				
					<ellipse transform="matrix(0.9786 -0.2056 0.2056 0.9786 -18.1955 97.6814)" style="fill:#5574D8;" cx="460.915" cy="136.392" rx="21.264" ry="19.829"/>
				
					<ellipse transform="matrix(0.9786 -0.2056 0.2056 0.9786 -17.7762 96.998)" style="fill:#708CF5;" cx="457.816" cy="134.029" rx="21.264" ry="19.829"/>
				<path style="fill:#FFFFFF;" d="M458.495,150.078c-5.182,0-10.234-2.221-13.43-6.42c-2.517-3.308-3.538-7.381-2.874-11.469
					c0.708-4.362,3.208-8.203,7.041-10.817c7.642-5.215,18.217-3.732,23.569,3.304l0,0c2.518,3.309,3.538,7.381,2.874,11.469
					c-0.708,4.362-3.208,8.204-7.04,10.818C465.554,149.064,461.995,150.078,458.495,150.078z M459.378,119.252
					c-3.306,0-6.669,0.958-9.582,2.946c-3.604,2.458-5.954,6.063-6.617,10.151c-0.619,3.814,0.334,7.615,2.683,10.703
					c5.035,6.619,14.997,8.003,22.21,3.084c3.605-2.458,5.954-6.063,6.618-10.152c0.619-3.814-0.334-7.615-2.683-10.703
					C469.005,121.337,464.253,119.252,459.378,119.252z"/>
				<g>
					<path style="fill:#FFFFFF;" d="M460.207,141.291c-1.035,0.228-2.027,0.324-2.975,0.29c-0.948-0.035-1.777-0.155-2.486-0.362
						c-0.413-0.128-0.674-0.364-0.783-0.709c-0.088-0.278-0.058-0.552,0.088-0.822c0.146-0.27,0.379-0.453,0.699-0.549
						c0.247-0.075,0.521-0.084,0.822-0.027c0.762,0.159,1.524,0.25,2.288,0.271c0.764,0.022,1.573-0.096,2.43-0.354
						c0.32-0.096,0.619-0.205,0.897-0.325c0.278-0.121,0.539-0.26,0.783-0.417c0.244-0.158,0.455-0.329,0.634-0.514
						c0.179-0.185,0.324-0.379,0.435-0.58c0.111-0.202,0.177-0.424,0.197-0.666s-0.011-0.493-0.093-0.752
						c-0.151-0.48-0.462-0.819-0.931-1.019c-0.47-0.2-1.137-0.275-2.002-0.224l-2.743,0.165c-0.545,0.028-0.996,0.046-1.355,0.054
						c-0.359,0.008-0.747,0.002-1.166-0.019c-0.419-0.021-0.768-0.063-1.048-0.125c-0.279-0.063-0.566-0.158-0.86-0.284
						c-0.294-0.127-0.543-0.288-0.746-0.484c-0.203-0.196-0.392-0.439-0.568-0.727c-0.176-0.288-0.324-0.624-0.445-1.008
						c-0.112-0.355-0.171-0.705-0.178-1.049c-0.007-0.344,0.034-0.669,0.125-0.975c0.09-0.305,0.222-0.603,0.396-0.891
						c0.174-0.289,0.388-0.561,0.641-0.815c0.253-0.255,0.542-0.494,0.866-0.718c0.325-0.224,0.674-0.432,1.049-0.623
						c0.374-0.192,0.779-0.369,1.213-0.531l-0.93-2.949c-0.094-0.297-0.071-0.556,0.069-0.777c0.139-0.22,0.343-0.371,0.611-0.452
						c0.268-0.081,0.532-0.068,0.791,0.037c0.259,0.106,0.434,0.302,0.525,0.59l0.939,2.978c0.551-0.114,1.105-0.186,1.66-0.217
						s1.017-0.033,1.387-0.008c0.369,0.025,0.731,0.063,1.086,0.114c0.565,0.071,0.918,0.333,1.06,0.783
						c0.03,0.096,0.045,0.197,0.044,0.302c-0.001,0.105-0.02,0.206-0.058,0.301c-0.038,0.095-0.085,0.186-0.143,0.272
						c-0.058,0.086-0.138,0.162-0.241,0.23c-0.103,0.068-0.216,0.12-0.34,0.158c-0.062,0.019-0.123,0.032-0.182,0.039
						c-0.06,0.007-0.125,0.014-0.197,0.02c-0.072,0.006-0.141,0.008-0.209,0.008c-0.01,0.003-0.159-0.002-0.445-0.016
						c-0.287-0.013-0.493-0.022-0.618-0.026c-0.126-0.004-0.345-0.001-0.658,0.009c-0.313,0.01-0.581,0.028-0.805,0.053
						c-0.224,0.025-0.49,0.066-0.8,0.123c-0.31,0.057-0.609,0.128-0.898,0.215c-0.598,0.18-1.112,0.395-1.541,0.646
						c-0.429,0.25-0.756,0.556-0.981,0.918c-0.225,0.362-0.272,0.749-0.142,1.161c0.163,0.518,0.44,0.841,0.831,0.971
						c0.391,0.129,1.106,0.158,2.145,0.086l2.688-0.18c1.737-0.114,3.071,0.051,4.002,0.496c0.931,0.444,1.57,1.218,1.918,2.321
						c0.414,1.314,0.273,2.486-0.425,3.515c-0.698,1.029-1.802,1.851-3.314,2.464l0.916,2.906c0.091,0.288,0.059,0.547-0.094,0.777
						c-0.153,0.23-0.369,0.387-0.648,0.471c-0.165,0.05-0.33,0.063-0.496,0.039c-0.166-0.024-0.32-0.093-0.463-0.207
						c-0.143-0.114-0.247-0.272-0.31-0.474L460.207,141.291z"/>
				</g>
			</g>
			<g>
				<g>
					<g>
						<path style="fill:#FF9C9C;" d="M555.335,190.373c-1.248-7.576-2.721-15.113-4.467-22.59
							c-2.777-11.894-5.362-24.636-11.36-35.341c-1.036-4.406-4.011-8.327-8.076-10.647c-4.798-1.871-18.063-13.144-18.063-13.144
							c-1.826-1.63-4.521-1.357-5.582,0.564c-1.171,2.121-1.24,4.658-0.378,6.977c-6.153-3.468-11.777-7.007-11.777-7.007
							c-2.617-1.735-5.971-0.943-6.948,1.641c-1.182,3.128-0.596,6.661,1.319,9.588c-3.982-2.15-6.915-3.854-6.915-3.854
							c-2.68-1.657-6.382-0.545-7.667,2.303c-2.417,5.357-0.321,11.444,4.914,14.274l6.554,3.543
							c10.177,4.543,15.418,12.785,15.762,21.952c0.236,6.295-4.245,13.405-10.873,14.613l-1.938,0.212
							c-3.743,0.409-7.49-0.842-10.203-3.453c-3.002-2.888-5.2-6.489-6.329-10.509l-1.069-3.804
							c-1.739-4.539-6.858-7.033-11.918-5.805c-2.382,0.578-3.997,2.708-3.782,4.986l1.978,20.933
							c0.628,6.648,4.638,12.503,10.772,15.729l27.601,14.517c-0.146,0.041-0.23,0.064-0.23,0.064l-11.823,98.792l-30.669,9.443
							l3.055,74.397c0,0,86.829,19.046,101.323-37.276c5.631-21.881,4.751-45.913,4.096-68.301
							c-0.762-26.047-1.841-52.134-5.152-78.001C556.86,200.226,556.145,195.292,555.335,190.373z"/>
						<g>
							<path style="fill:#FF9C9C;" d="M488.153,122.231l-1.69,1.523c-1.089,0.981-2.779,1.068-3.917,0.218
								c-1.513-1.129-3.072-3.004-2.142-5.613"/>
							<path style="fill:#FF6969;" d="M484.346,125.303c-0.8,0-1.595-0.241-2.249-0.729c-2.397-1.789-3.249-4.085-2.399-6.466
								c0.14-0.39,0.571-0.593,0.958-0.455c0.391,0.139,0.594,0.568,0.454,0.959c-0.627,1.757,0.008,3.358,1.884,4.76
								c0.852,0.634,2.153,0.558,2.967-0.174l1.69-1.523c0.308-0.278,0.781-0.253,1.06,0.055c0.276,0.308,0.252,0.782-0.056,1.059
								l-1.69,1.523C486.234,124.969,485.287,125.303,484.346,125.303z"/>
						</g>
						<g>
							<path style="fill:#FF9C9C;" d="M501.436,114.66l-1.69,1.523c-1.089,0.981-2.779,1.068-3.917,0.218
								c-1.513-1.129-3.072-3.004-2.142-5.613"/>
							<path style="fill:#FF6969;" d="M497.628,117.732c-0.799,0-1.594-0.24-2.248-0.729c-2.397-1.789-3.249-4.085-2.399-6.466
								c0.139-0.39,0.571-0.593,0.958-0.455c0.391,0.139,0.594,0.568,0.454,0.959c-0.627,1.757,0.008,3.358,1.884,4.76
								c0.852,0.634,2.154,0.557,2.968-0.175l1.689-1.522c0.308-0.278,0.781-0.253,1.06,0.055c0.276,0.308,0.252,0.782-0.056,1.059
								l-1.69,1.522C499.519,117.397,498.57,117.732,497.628,117.732z"/>
						</g>
						<g>
							<path style="fill:#FF9C9C;" d="M515.964,112.916l-1.349,0.732c-0.869,0.472-1.968,0.269-2.55-0.46
								c-0.774-0.968-1.447-2.429-0.396-3.986"/>
							<path style="fill:#FF6969;" d="M513.611,114.651c-0.817,0-1.616-0.348-2.133-0.995c-1.301-1.629-1.454-3.359-0.433-4.874
								c0.232-0.344,0.698-0.435,1.042-0.202c0.343,0.232,0.434,0.698,0.202,1.041c-0.24,0.355-0.969,1.435,0.36,3.099
								c0.356,0.447,1.063,0.563,1.606,0.269l1.35-0.732c0.365-0.198,0.82-0.062,1.017,0.301c0.197,0.364,0.063,0.819-0.302,1.017
								l-1.35,0.732C514.544,114.54,514.075,114.651,513.611,114.651z"/>
						</g>
						<path style="fill:#FF9C9C;" d="M490.076,120.04"/>
						<g>
							<path style="fill:#FF9C9C;" d="M507.284,116.121c5.164,2.915,10.728,5.796,13.669,6.502l0,0
								c5.576,2.225,10.079,6.639,12.225,11.983"/>
							<path style="fill:#FF6969;" d="M533.178,135.356c-0.297,0-0.578-0.178-0.696-0.471c-2.076-5.172-6.359-9.378-11.758-11.546
								c-2.559-0.63-7.205-2.838-13.808-6.565c-0.361-0.204-0.488-0.661-0.285-1.022c0.203-0.36,0.662-0.487,1.021-0.285
								c6.437,3.633,11.097,5.855,13.476,6.426l0.103,0.033c5.8,2.314,10.407,6.833,12.643,12.4
								c0.154,0.384-0.032,0.821-0.417,0.975C533.365,135.339,533.271,135.356,533.178,135.356z"/>
						</g>
						<g>
							<path style="fill:#FF9C9C;" d="M490.065,120.353c0,0,12.441,7.494,19.255,8.644l0,0c5.842,1.951,10.328,6.334,12.18,11.899
								l3.239,9.733"/>
							<path style="fill:#FF6969;" d="M524.739,151.379c-0.315,0-0.608-0.199-0.712-0.513l-3.239-9.733
								c-1.781-5.356-6.027-9.511-11.652-11.407c-6.885-1.192-18.946-8.423-19.458-8.731c-0.355-0.214-0.47-0.675-0.256-1.029
								c0.213-0.355,0.673-0.47,1.029-0.256c0.123,0.074,12.398,7.434,18.993,8.547l0.112,0.028
								c6.104,2.039,10.717,6.549,12.655,12.374l3.239,9.733c0.131,0.393-0.082,0.818-0.475,0.948
								C524.898,151.367,524.817,151.379,524.739,151.379z"/>
						</g>
						<path style="fill:#FF9C9C;stroke:#FF6969;stroke-width:1.5;stroke-linecap:round;stroke-miterlimit:10;" d="M531.433,121.795"
							/>
					</g>
					<g>
						<path style="fill:#FF9C9C;" d="M458.569,165.676l2.815-0.683c1.814-0.44,3.003-2.092,2.775-3.819
							c-0.302-2.294-1.418-5.139-4.971-5.958"/>
						<path style="fill:#FF6969;" d="M458.568,166.426c-0.338,0-0.645-0.23-0.728-0.573c-0.098-0.402,0.149-0.808,0.552-0.906
							l2.814-0.683c1.438-0.349,2.387-1.635,2.209-2.992c-0.39-2.951-1.869-4.743-4.397-5.325c-0.403-0.093-0.655-0.496-0.562-0.899
							c0.093-0.404,0.487-0.659,0.899-0.563c3.986,0.919,5.217,4.092,5.546,6.591c0.278,2.119-1.158,4.116-3.342,4.645l-2.814,0.683
							C458.686,166.419,458.627,166.426,458.568,166.426z"/>
					</g>
				</g>
				<g>
					<path style="fill:#FF6969;" d="M496.682,205.973c0,0,9.626,8.514,22.093,2.536c0,0-7.919,14.194-23.433,8.584L496.682,205.973z
						"/>
					<path style="fill:#FF6969;" d="M484.84,304.908c0,0-5.104,30.163-5.098,29.154c0.005-1.008-1.524-27.181-1.524-27.181
						L484.84,304.908z"/>
				</g>
			</g>
		</g>
	</g>
	<g>
		<g>
			<path style="fill:#F4F8FE;" d="M467.064,263.654H284.668v-11.797c0-5.921,4.8-10.721,10.721-10.721h163.709
				c4.4,0,7.966,3.566,7.966,7.966V263.654z"/>
			<path style="fill:#5574D8;" d="M434.544,263.654H317.187v-3.767c0-5.921,4.8-10.721,10.721-10.721h98.67
				c4.4,0,7.966,3.566,7.966,7.966V263.654z"/>
			<path style="fill:#708CF5;" d="M382.733,223.497h-14.111c-19.111,0-34.603,15.492-34.603,34.603v0
				c0,2.757,2.235,4.991,4.991,4.991h73.334c2.757,0,4.991-2.235,4.991-4.991v0C417.336,238.989,401.844,223.497,382.733,223.497z"
				/>
			<path style="fill:#F4F8FE;" d="M377.754,231.482h-4.151c-17.221,0-31.181,13.96-31.181,31.181v0.428h66.513v-0.428
				C408.935,245.442,394.974,231.482,377.754,231.482z"/>
			<rect x="281.813" y="303.758" style="fill:#BBC7F9;" width="186.373" height="123.59"/>
			<g style="opacity:0.82;">
				<g>
					<path style="fill:#5574D8;" d="M293.91,349.172h-11.778c-0.367,0-0.666-0.299-0.666-0.667v-4.507
						c0-0.367,0.299-0.666,0.666-0.666h11.778c0.367,0,0.666,0.299,0.666,0.666v4.507
						C294.576,348.873,294.277,349.172,293.91,349.172z M282.216,348.422h11.61v-4.34h-11.61V348.422z"/>
					<path style="fill:#5574D8;" d="M288.06,344.082h-6.054c-0.207,0-0.375-0.168-0.375-0.375c0-0.207,0.168-0.375,0.375-0.375
						h5.955v-4.34h-5.899c-0.207,0-0.375-0.168-0.375-0.375s0.168-0.375,0.375-0.375h5.998c0.359,0,0.651,0.293,0.651,0.652v4.536
						C288.712,343.79,288.42,344.082,288.06,344.082z M288.06,338.992h0.01H288.06z"/>
					<path style="fill:#5574D8;" d="M288.06,354.268h-6.054c-0.207,0-0.375-0.168-0.375-0.375c0-0.207,0.168-0.375,0.375-0.375
						h5.955v-4.339h-5.899c-0.207,0-0.375-0.168-0.375-0.375s0.168-0.375,0.375-0.375h5.998c0.359,0,0.651,0.292,0.651,0.651v4.536
						C288.712,353.976,288.42,354.268,288.06,354.268z M288.06,349.179h0.01H288.06z"/>
				</g>
				<g>
					<path style="fill:#5574D8;" d="M467.674,415.627h-11.777c-0.367,0-0.666-0.299-0.666-0.666v-4.507
						c0-0.367,0.299-0.666,0.666-0.666h11.777c0.368,0,0.667,0.299,0.667,0.666v4.507
						C468.341,415.328,468.042,415.627,467.674,415.627z M455.98,414.877h11.61v-4.339h-11.61V414.877z M467.674,410.538h0.01
						H467.674z"/>
					<path style="fill:#5574D8;" d="M467.744,420.717h-5.998c-0.359,0-0.652-0.292-0.652-0.651v-4.537
						c0-0.359,0.293-0.651,0.652-0.651h6.054c0.207,0,0.375,0.168,0.375,0.375c0,0.207-0.168,0.375-0.375,0.375h-5.956v4.34h5.9
						c0.207,0,0.375,0.168,0.375,0.375S467.951,420.717,467.744,420.717z"/>
					<path style="fill:#5574D8;" d="M467.744,410.53h-5.998c-0.359,0-0.652-0.292-0.652-0.651v-4.536
						c0-0.359,0.293-0.651,0.652-0.651h6.054c0.207,0,0.375,0.168,0.375,0.375s-0.168,0.375-0.375,0.375h-5.956v4.339h5.9
						c0.207,0,0.375,0.168,0.375,0.375C468.119,410.362,467.951,410.53,467.744,410.53z"/>
				</g>
				<g>
					<path style="fill:#5574D8;" d="M393.767,417.176h-11.777c-0.368,0-0.667-0.299-0.667-0.666v-4.507
						c0-0.367,0.299-0.666,0.667-0.666h11.777c0.367,0,0.666,0.299,0.666,0.666v4.507
						C394.433,416.877,394.134,417.176,393.767,417.176z M382.072,416.426h11.61v-4.339h-11.61V416.426z M393.767,412.087h0.01
						H393.767z"/>
				</g>
				<g>
					<path style="fill:#5574D8;" d="M399.741,411.976h-11.777c-0.368,0-0.667-0.299-0.667-0.666v-4.507
						c0-0.367,0.299-0.666,0.667-0.666h11.777c0.367,0,0.666,0.299,0.666,0.666v4.507
						C400.407,411.677,400.108,411.976,399.741,411.976z M388.047,411.226h11.61v-4.339h-11.61V411.226z M399.741,406.887h0.01
						H399.741z"/>
				</g>
				<g>
					<path style="fill:#5574D8;" d="M399.631,422.266h-11.778c-0.367,0-0.666-0.299-0.666-0.666v-4.507
						c0-0.368,0.299-0.667,0.666-0.667h11.778c0.367,0,0.666,0.299,0.666,0.667v4.507
						C400.297,421.967,399.998,422.266,399.631,422.266z M387.936,421.516h11.61v-4.34h-11.61V421.516z M399.631,417.176h0.01
						H399.631z"/>
				</g>
				<g>
					<path style="fill:#5574D8;" d="M460.15,322.136h-11.777c-0.367,0-0.666-0.299-0.666-0.666v-4.507
						c0-0.367,0.299-0.666,0.666-0.666h11.777c0.367,0,0.666,0.299,0.666,0.666v4.507
						C460.816,321.837,460.518,322.136,460.15,322.136z M448.457,321.386h11.609v-4.339h-11.609V321.386z"/>
				</g>
				<g>
					<path style="fill:#5574D8;" d="M454.176,327.336h-11.777c-0.367,0-0.666-0.299-0.666-0.666v-4.507
						c0-0.367,0.299-0.666,0.666-0.666h11.777c0.368,0,0.667,0.299,0.667,0.666v4.507
						C454.843,327.037,454.544,327.336,454.176,327.336z M442.482,326.586h11.61v-4.339h-11.61V326.586z"/>
				</g>
				<g>
					<path style="fill:#5574D8;" d="M454.287,317.047h-11.778c-0.367,0-0.666-0.299-0.666-0.666v-4.507
						c0-0.368,0.299-0.667,0.666-0.667h11.778c0.367,0,0.666,0.299,0.666,0.667v4.507
						C454.953,316.748,454.654,317.047,454.287,317.047z M442.593,316.297h11.61v-4.34h-11.61V316.297z"/>
				</g>
			</g>
			<path style="fill:#7F97E2;" d="M471.098,440.202H278.902c-1.6,0-2.898-1.297-2.898-2.898v-7.552c0-1.6,1.297-2.898,2.898-2.898
				h192.195c1.6,0,2.898,1.297,2.898,2.898v7.552C473.995,438.904,472.698,440.202,471.098,440.202z"/>
			<path style="fill:#5574D8;" d="M473.107,440.202H276.893c-0.49,0-0.888-0.398-0.888-0.888v-2.942c0-0.49,0.398-0.888,0.888-0.888
				h196.215c0.49,0,0.888,0.398,0.888,0.888v2.942C473.995,439.804,473.598,440.202,473.107,440.202z"/>
			<g>
				<rect x="358.54" y="270.38" style="fill:#F4F8FE;" width="33.207" height="35.081"/>
				<polygon style="fill:#5574D8;" points="358.54,305.462 325.333,305.462 329.035,270.38 358.54,270.38 				"/>
				<polygon style="fill:#F4F8FE;" points="324.842,305.462 291.635,305.462 295.337,270.38 328.544,270.38 				"/>
				<polygon style="fill:#5574D8;" points="292.222,305.462 259.016,305.462 269.633,270.38 295.924,270.38 				"/>
				<path style="fill:#708CF5;" d="M291.695,305.656c0,5.49-7.385,9.94-16.496,9.94c-9.11,0-16.496-4.45-16.496-9.94"/>
				<path style="fill:#FFFFFF;" d="M324.758,305.656c0,5.49-7.385,9.94-16.496,9.94c-9.11,0-16.496-4.45-16.496-9.94"/>
				<path style="fill:#708CF5;" d="M357.965,305.656c0,5.49-7.385,9.94-16.496,9.94s-16.496-4.45-16.496-9.94"/>
				<polygon style="fill:#5574D8;" points="391.46,305.462 424.667,305.462 420.965,270.38 391.46,270.38 				"/>
				<polygon style="fill:#F4F8FE;" points="425.158,305.462 458.365,305.462 454.663,270.38 421.456,270.38 				"/>
				<polygon style="fill:#5574D8;" points="457.778,305.462 490.984,305.462 480.367,270.38 454.076,270.38 				"/>
				<path style="fill:#708CF5;" d="M458.305,305.656c0,5.49,7.385,9.94,16.496,9.94c9.11,0,16.496-4.45,16.496-9.94"/>
				<path style="fill:#FFFFFF;" d="M425.242,305.656c0,5.49,7.385,9.94,16.496,9.94c9.11,0,16.496-4.45,16.496-9.94"/>
				<path style="fill:#708CF5;" d="M392.035,305.656c0,5.49,7.385,9.94,16.496,9.94s16.496-4.45,16.496-9.94"/>
				<path style="fill:#FFFFFF;" d="M391.028,305.656c0,5.49-7.385,9.94-16.496,9.94c-9.11,0-16.496-4.45-16.496-9.94"/>
			</g>
			<path style="fill:#9BABE8;" d="M478.219,272.15h-205.4c-2.751,0-4.98-2.23-4.98-4.981v-0.606c0-2.751,2.23-4.981,4.98-4.981
				h205.4c2.751,0,4.981,2.23,4.981,4.981v0.606C483.2,269.92,480.97,272.15,478.219,272.15z"/>
			<g>
				<g>
					<path style="fill:#708CF5;" d="M366.07,416.427h-63.995c-1.045,0-1.893-0.847-1.893-1.893v-91.753
						c0-1.045,0.847-1.893,1.893-1.893h63.995c1.045,0,1.893,0.847,1.893,1.893v91.753
						C367.963,415.58,367.115,416.427,366.07,416.427z"/>
					<rect x="307.288" y="326.844" style="fill:#F4F8FE;" width="54.197" height="30.968"/>
					<path style="opacity:0.35;fill:#BBC7F9;" d="M322.088,357.436c-0.15,0-0.299-0.067-0.397-0.196
						c-0.168-0.22-0.126-0.533,0.094-0.701l39.397-30.093c0.22-0.167,0.533-0.126,0.701,0.094c0.168,0.22,0.126,0.533-0.094,0.701
						l-39.397,30.093C322.301,357.403,322.194,357.436,322.088,357.436z"/>
					<path style="opacity:0.35;fill:#BBC7F9;" d="M306.949,357.436c-0.145,0-0.288-0.063-0.387-0.184
						c-0.175-0.214-0.144-0.528,0.07-0.703l36.808-30.099c0.213-0.175,0.528-0.144,0.703,0.07c0.175,0.214,0.144,0.528-0.07,0.703
						l-36.808,30.099C307.173,357.399,307.06,357.436,306.949,357.436z"/>
					<rect x="307.288" y="366.999" style="fill:#F4F8FE;" width="54.197" height="43.306"/>
					<path style="opacity:0.35;fill:#BBC7F9;" d="M322.088,409.582c-0.123,0-0.245-0.045-0.342-0.135
						c-0.201-0.189-0.212-0.505-0.023-0.707l39.397-42.083c0.19-0.201,0.505-0.211,0.707-0.023c0.201,0.189,0.212,0.505,0.023,0.707
						l-39.397,42.083C322.354,409.529,322.222,409.582,322.088,409.582z"/>
					<path style="opacity:0.35;fill:#BBC7F9;" d="M306.949,409.582c-0.117,0-0.234-0.041-0.329-0.124
						c-0.208-0.182-0.229-0.497-0.047-0.705l36.808-42.091c0.182-0.209,0.498-0.228,0.705-0.047
						c0.208,0.182,0.229,0.497,0.047,0.705l-36.808,42.091C307.227,409.524,307.088,409.582,306.949,409.582z"/>
					<path style="fill:#5574D8;" d="M373.728,426.577h-79.279c-1.105,0-2-0.895-2-2v-6.278c0-1.105,0.895-2,2-2h79.279
						c1.105,0,2,0.895,2,2v6.278C375.728,425.681,374.833,426.577,373.728,426.577z"/>
					<path style="fill:#BBC7F9;" d="M347.574,347.014h-26.719c-0.478,0-0.866-0.388-0.866-0.866v-7.18
						c0-0.478,0.388-0.866,0.866-0.866h26.719c0.478,0,0.866,0.388,0.866,0.866v7.18
						C348.44,346.626,348.053,347.014,347.574,347.014z"/>
				</g>
				<g>
					<path style="fill:#708CF5;" d="M452.036,397.639h-68.337c-1.368,0-2.477-1.109-2.477-2.477v-62.345
						c0-1.368,1.109-2.477,2.477-2.477h68.337c1.368,0,2.477,1.109,2.477,2.477v62.345
						C454.513,396.53,453.404,397.639,452.036,397.639z"/>
					<path style="fill:#5574D8;" d="M457.178,401.5h-77.127c-0.871,0-1.577-0.706-1.577-1.577v-4.419
						c0-0.871,0.706-1.577,1.577-1.577h77.127c0.871,0,1.577,0.706,1.577,1.577v4.419C458.755,400.794,458.049,401.5,457.178,401.5z
						"/>
					<rect x="386.242" y="337.277" style="fill:#F4F8FE;" width="63.251" height="50.899"/>
					<path style="opacity:0.35;fill:#BBC7F9;" d="M395.01,388.01c-0.05,0-0.102-0.008-0.152-0.023
						c-0.263-0.084-0.408-0.365-0.324-0.629l16.031-50.223c0.085-0.262,0.361-0.406,0.629-0.324
						c0.263,0.084,0.408,0.365,0.324,0.629l-16.031,50.223C395.418,387.874,395.222,388.01,395.01,388.01z"/>
					<path style="opacity:0.35;fill:#BBC7F9;" d="M406.749,388.01c-0.05,0-0.102-0.008-0.152-0.023
						c-0.263-0.084-0.408-0.365-0.324-0.629l16.031-50.223c0.085-0.262,0.363-0.406,0.629-0.324
						c0.263,0.084,0.408,0.365,0.324,0.629l-16.031,50.223C407.157,387.874,406.961,388.01,406.749,388.01z"/>
				</g>
			</g>
		</g>
		<g>
			<g>
				<g>
					<path style="fill:#5574D8;" d="M253.732,358c-0.553,0-1-0.447-1-1v-16.65c0-8.287-7.526-15.029-16.778-15.029
						c-9.252,0-16.778,6.742-16.778,15.029v16.237c0,0.553-0.447,1-1,1c-0.553,0-1-0.447-1-1V340.35
						c0-9.39,8.424-17.029,18.778-17.029c10.354,0,18.778,7.64,18.778,17.029V357C254.732,357.553,254.285,358,253.732,358z"/>
					<polygon style="fill:#5574D8;" points="203.265,350.73 195.007,440.123 278.048,440.194 265.661,350.271 					"/>
					<polygon style="fill:#708CF5;" points="178.49,350.73 170.044,440.184 253.273,440.194 240.886,350.271 					"/>
					<path style="fill:#5574D8;" d="M229.416,358c-0.553,0-1-0.447-1-1v-16.65c0-8.287-7.526-15.029-16.778-15.029
						c-9.252,0-16.778,6.742-16.778,15.029v16.237c0,0.553-0.447,1-1,1c-0.553,0-1-0.447-1-1V340.35
						c0-9.39,8.424-17.029,18.778-17.029c10.354,0,18.778,7.64,18.778,17.029V357C230.416,357.553,229.969,358,229.416,358z"/>
					<path style="fill:#5574D8;" d="M229.189,383.318h-33.327c-1.542,0-2.796-1.254-2.796-2.796v-9.611
						c0-1.542,1.254-2.796,2.796-2.796h33.327c1.542,0,2.797,1.254,2.797,2.796v9.611
						C231.986,382.065,230.731,383.318,229.189,383.318z M195.862,370.115c-0.438,0-0.796,0.357-0.796,0.796v9.611
						c0,0.438,0.357,0.796,0.796,0.796h33.327c0.439,0,0.797-0.357,0.797-0.796v-9.611c0-0.438-0.357-0.796-0.797-0.796H195.862z"/>
				</g>
				<g>
					<path style="fill:#481EEF;" d="M173.439,369.215c-0.553,0-1-0.447-1-1v-14.197c0-6.985-6.352-12.668-14.158-12.668
						c-7.808,0-14.159,5.683-14.159,12.668v13.845c0,0.553-0.447,1-1,1c-0.553,0-1-0.447-1-1v-13.845
						c0-8.088,7.249-14.668,16.159-14.668c8.909,0,16.158,6.58,16.158,14.668v14.197
						C174.439,368.768,173.992,369.215,173.439,369.215z"/>
					<polygon style="fill:#481EEF;" points="130.408,363.912 123.367,440.134 194.173,440.194 183.611,363.52 					"/>
					<polygon style="fill:#5D33FF;" points="109.284,363.912 102.082,440.186 173.049,440.194 162.486,363.52 					"/>
					<path style="fill:#481EEF;" d="M152.707,369.215c-0.553,0-1-0.447-1-1v-14.197c0-6.985-6.352-12.668-14.159-12.668
						c-7.808,0-14.159,5.683-14.159,12.668v13.845c0,0.553-0.447,1-1,1c-0.553,0-1-0.447-1-1v-13.845
						c0-8.088,7.249-14.668,16.159-14.668c8.91,0,16.159,6.58,16.159,14.668v14.197C153.707,368.768,153.26,369.215,152.707,369.215
						z"/>
					<path style="fill:#481EEF;" d="M152.249,391.846h-27.888c-1.542,0-2.796-1.254-2.796-2.796v-7.666
						c0-1.542,1.254-2.796,2.796-2.796h27.888c1.542,0,2.796,1.254,2.796,2.796v7.666
						C155.045,390.592,153.791,391.846,152.249,391.846z M124.361,380.588c-0.438,0-0.796,0.357-0.796,0.796v7.666
						c0,0.439,0.357,0.796,0.796,0.796h27.888c0.438,0,0.796-0.357,0.796-0.796v-7.666c0-0.438-0.357-0.796-0.796-0.796H124.361z"/>
				</g>
			</g>
			<g>
				<g>
					<path style="fill:#5574D8;" d="M555.641,358c-0.553,0-1-0.447-1-1v-16.65c0-8.287-7.526-15.029-16.778-15.029
						c-9.252,0-16.778,6.742-16.778,15.029v16.237c0,0.553-0.447,1-1,1c-0.553,0-1-0.447-1-1V340.35
						c0-9.39,8.424-17.029,18.778-17.029s18.778,7.64,18.778,17.029V357C556.641,357.553,556.193,358,555.641,358z"/>
					<polygon style="fill:#5574D8;" points="505.173,350.73 496.915,440.123 579.956,440.194 567.569,350.271 					"/>
					<polygon style="fill:#708CF5;" points="480.398,350.73 471.952,440.184 555.182,440.194 542.794,350.271 					"/>
					<path style="fill:#5574D8;" d="M531.324,358c-0.553,0-1-0.447-1-1v-16.65c0-8.287-7.526-15.029-16.778-15.029
						c-9.252,0-16.778,6.742-16.778,15.029v16.237c0,0.553-0.447,1-1,1c-0.553,0-1-0.447-1-1V340.35
						c0-9.39,8.424-17.029,18.778-17.029s18.778,7.64,18.778,17.029V357C532.324,357.553,531.877,358,531.324,358z"/>
					<path style="fill:#5574D8;" d="M531.099,383.318h-33.328c-1.542,0-2.796-1.254-2.796-2.796v-9.611
						c0-1.542,1.254-2.796,2.796-2.796h33.328c1.542,0,2.796,1.254,2.796,2.796v9.611
						C533.894,382.065,532.641,383.318,531.099,383.318z M497.771,370.115c-0.439,0-0.796,0.357-0.796,0.796v9.611
						c0,0.438,0.357,0.796,0.796,0.796h33.328c0.439,0,0.796-0.357,0.796-0.796v-9.611c0-0.438-0.357-0.796-0.796-0.796H497.771z"/>
				</g>
				<g>
					<path style="fill:#481EEF;" d="M627.185,369.215c-0.553,0-1-0.447-1-1v-14.197c0-6.985-6.352-12.668-14.158-12.668
						c-7.808,0-14.159,5.683-14.159,12.668v13.845c0,0.553-0.447,1-1,1c-0.553,0-1-0.447-1-1v-13.845
						c0-8.088,7.249-14.668,16.159-14.668c8.909,0,16.158,6.58,16.158,14.668v14.197
						C628.185,368.768,627.737,369.215,627.185,369.215z"/>
					<polygon style="fill:#481EEF;" points="584.153,363.912 577.112,440.134 647.918,440.194 637.356,363.52 					"/>
					<polygon style="fill:#5D33FF;" points="563.029,363.912 555.827,440.186 626.794,440.194 616.231,363.52 					"/>
					<path style="fill:#481EEF;" d="M606.451,369.215c-0.553,0-1-0.447-1-1v-14.197c0-6.985-6.352-12.668-14.158-12.668
						c-7.808,0-14.159,5.683-14.159,12.668v13.845c0,0.553-0.447,1-1,1c-0.553,0-1-0.447-1-1v-13.845
						c0-8.088,7.249-14.668,16.159-14.668c8.909,0,16.158,6.58,16.158,14.668v14.197
						C607.451,368.768,607.004,369.215,606.451,369.215z"/>
					<path style="fill:#481EEF;" d="M605.994,391.846h-27.888c-1.542,0-2.797-1.254-2.797-2.796v-7.666
						c0-1.542,1.255-2.796,2.797-2.796h27.888c1.542,0,2.796,1.254,2.796,2.796v7.666
						C608.79,390.592,607.536,391.846,605.994,391.846z M578.106,380.588c-0.439,0-0.797,0.357-0.797,0.796v7.666
						c0,0.439,0.357,0.796,0.797,0.796h27.888c0.439,0,0.796-0.357,0.796-0.796v-7.666c0-0.438-0.357-0.796-0.796-0.796H578.106z"/>
				</g>
			</g>
		</g>
	</g>
</g>
</svg>
